<svg width="12" height="12" viewBox="0 0 12 12" fill="none" xmlns="http://www.w3.org/2000/svg">
<path fill-rule="evenodd" clip-rule="evenodd" d="M0 5.99964C0 9.31317 2.6747 12 6 12C9.3253 12 12 9.31317 12 5.99964C12 2.6861 9.3253 0 6 0C2.6747 0 0 2.6861 0 5.99964ZM1.15649 5.99969C1.15649 3.34901 3.32517 1.19998 5.99987 1.19998C8.67457 1.19998 10.771 3.34901 10.771 5.99969C10.771 8.6511 8.67457 10.7994 5.99987 10.7994C3.32517 10.7994 1.15649 8.6511 1.15649 5.99969ZM6.28957 6.63939C6.28957 6.85769 6.0727 7.05069 5.85584 7.05069H5.78355C5.56668 7.05069 5.34981 6.86637 5.34981 6.63939L5.27752 6.06834C5.20523 5.79077 5.34981 5.59777 5.63897 5.56452C6.36186 5.47199 6.72331 5.24502 6.72331 4.83372V4.81637C6.72331 4.43832 6.43415 4.22002 5.92813 4.22002C5.56668 4.22002 5.27752 4.32917 4.98837 4.55614C4.84379 4.63204 4.69921 4.69059 4.55463 4.69059C4.26548 4.69059 3.97632 4.42169 3.97632 4.10292C3.97632 3.94317 4.04861 3.77474 4.19319 3.64897C4.69921 3.27959 5.20523 3.04395 6.00041 3.04395C7.15704 3.04395 8.02451 3.66559 8.02451 4.78312V4.79974C8.02451 5.86667 7.22933 6.30327 6.36186 6.48832L6.28957 6.63939ZM5.0603 8.3359V8.31928C5.0603 7.91593 5.34946 7.6051 5.78319 7.6051C6.21693 7.6051 6.50609 7.91593 6.50609 8.31928V8.3359C6.50609 8.73925 6.21693 9.05008 5.78319 9.05008C5.34946 9.05008 5.0603 8.73925 5.0603 8.3359Z" fill="#979797"/>
</svg>
