<svg width="16" height="16" viewBox="0 0 16 16" fill="none" xmlns="http://www.w3.org/2000/svg">
<path fill-rule="evenodd" clip-rule="evenodd" d="M15.7592 1.47751C16.0803 1.13967 16.0803 0.591213 15.7592 0.253377C15.3311 -0.084459 14.796 -0.084459 14.4749 0.253377L7.94649 6.56486L1.52508 0.253377C1.09699 -0.084459 0.561873 -0.084459 0.240803 0.253377C-0.0802676 0.591213 -0.0802676 1.13967 0.240803 1.47751L6.76923 7.78899L0.240803 14.1015C-0.0802676 14.4394 -0.0802676 14.9868 0.240803 15.3246C0.561873 15.6635 1.09699 15.6635 1.52508 15.3246L7.94649 9.01313L14.4749 15.3246C14.796 15.6635 15.3311 15.6635 15.7592 15.3246C16.0803 14.9868 16.0803 14.4394 15.7592 14.1015L9.23077 7.78899L15.7592 1.47751Z" fill="#333333"/>
</svg>
