<svg width="24" height="20" viewBox="0 0 24 20" fill="none" xmlns="http://www.w3.org/2000/svg">
<path fill-rule="evenodd" clip-rule="evenodd" d="M21.8188 0.117676C23.0287 0.117676 24 1.09462 24 2.31438V17.6857C24.0011 17.9731 23.9456 18.258 23.8365 18.524C23.7275 18.79 23.5671 19.0319 23.3646 19.236C23.162 19.44 22.9212 19.602 22.656 19.713C22.3908 19.8239 22.1063 19.8814 21.8188 19.8824H2.18119C1.89371 19.8814 1.60922 19.8239 1.344 19.713C1.07877 19.602 0.837999 19.44 0.635439 19.236C0.43288 19.0319 0.272504 18.79 0.163475 18.524C0.0544461 18.258 -0.00109789 17.9731 1.64401e-05 17.6857V2.31438C1.64401e-05 1.09462 0.971309 0.117676 2.18119 0.117676H21.8188ZM7.62918 6.37179H2.93225V13.4546H7.80424V12.0146H4.45554V10.5746H7.45271V9.13461H4.45554V7.8132H7.62918V6.3732V6.37179ZM11.7374 6.37179H9.43059V13.4546H10.9553V8.02355H10.9736L12.7214 13.4546H13.8833L15.7002 8.02355H15.72V13.4546H17.2433V6.3732H14.9478L13.3468 10.9939H13.3271L11.7346 6.3732L11.7374 6.37179ZM20.5609 6.37179H19.0376V13.4546H20.5623V6.3732L20.5609 6.37179Z" fill="#2E2E2E"/>
</svg>
