<svg width="24" height="24" viewBox="0 0 24 24" fill="none" xmlns="http://www.w3.org/2000/svg">
<path fill-rule="evenodd" clip-rule="evenodd" d="M22.7368 19.5007V20.7504C22.7368 22.1247 21.6 23.2497 20.2105 23.2497H2.52632C1.12337 23.2497 0 22.1247 0 20.7504V3.25142C0 1.87542 1.12337 0.750366 2.52632 0.750366H20.2105C21.6 0.750366 22.7368 1.87542 22.7368 3.24973V4.49942H11.3684C9.96547 4.49942 8.8421 5.62616 8.8421 7.00047V16.9996C8.8421 18.3756 9.96547 19.5007 11.3684 19.5007H22.7368ZM11.3684 16.9996H24V7.00047H11.3684V16.9996ZM16.4211 13.8754C16.1735 13.877 15.9281 13.8297 15.6988 13.7363C15.4695 13.6429 15.2609 13.5052 15.085 13.3311C14.909 13.157 14.769 12.9499 14.6732 12.7216C14.5773 12.4934 14.5274 12.2485 14.5263 12.0009C14.5263 10.9617 15.3718 10.1247 16.4211 10.1247C17.4703 10.1247 18.3158 10.9617 18.3158 12.0009C18.3158 13.0384 17.4703 13.8754 16.4211 13.8754Z" fill="#2E2E2E"/>
</svg>
