<svg width="22" height="22" viewBox="0 0 22 22" fill="none" xmlns="http://www.w3.org/2000/svg">
<path fill-rule="evenodd" clip-rule="evenodd" d="M13.9241 1.83913L21.612 17.1619C22.8049 19.3888 21.0818 22 18.6959 22H3.3201C0.80165 22 -0.788948 19.3888 0.404 17.1619L7.95934 1.83913C9.28484 -0.613044 12.7311 -0.613044 13.9241 1.83913ZM11.936 2.83326C11.5384 2.0247 10.3454 2.0247 9.94777 2.83326L2.39244 18.1693C1.99479 18.8983 2.52499 19.7732 3.32028 19.7732H18.6961C19.4914 19.7732 20.0216 18.8983 19.6239 18.1693L11.936 2.83326ZM11.0081 10.5874C11.8034 10.5874 12.3336 11.2104 12.3336 11.9792V16.4329C12.3336 17.2017 11.8034 17.8247 11.0081 17.8247C10.2128 17.8247 9.55006 17.2017 9.55006 16.4329V11.9792C9.55006 11.2104 10.2128 10.5874 11.0081 10.5874ZM11.0081 6.41211C10.2128 6.41211 9.55006 7.0351 9.55006 7.80389C9.55006 8.57268 10.2128 9.19566 11.0081 9.19566C11.8034 9.19566 12.3336 8.57268 12.3336 7.80389C12.3336 7.0351 11.8034 6.41211 11.0081 6.41211Z" fill="#FAB446"/>
</svg>
