<svg width="336" height="248" viewBox="0 0 336 248" fill="none" xmlns="http://www.w3.org/2000/svg">
<rect y="30" width="336" height="218" rx="8" fill="url(#paint0_linear_1_613)"/>
<g filter="url(#filter0_d_1_613)">
<circle cx="153.5" cy="33.5" r="32.5" fill="white"/>
</g>
<path fill-rule="evenodd" clip-rule="evenodd" d="M156.987 24.0027C156.987 23.4482 157.47 23 158.074 23C158.557 23 159.04 23.4482 159.04 24.0027V25.0054H165.081V24.0027C165.081 23.4482 165.443 23 166.047 23C166.53 23 167.013 23.4482 167.013 24.0027V25.0054H168.101C169.671 25.0054 171 26.3523 171 28.0134V30.0188V40.0456C171 41.7079 169.671 43.0549 168.101 43.0549H156.02C154.329 43.0549 153 41.7079 153 40.0456V30.0188V28.0134C153 26.3523 154.329 25.0054 156.02 25.0054H156.987V24.0027ZM166.047 27.0124H158.074H156.02C155.416 27.0124 155.054 27.4618 155.054 28.0151V29.0178H169.067V28.0151C169.067 27.4618 168.584 27.0124 168.101 27.0124H166.047Z" fill="#149576"/>
<path fill-rule="evenodd" clip-rule="evenodd" d="M161.865 32.1812C162.255 32.1812 162.311 32.5651 162.311 33.012V35.5431L164.925 37.1549C165.316 37.392 165.12 37.3696 164.925 37.7482C164.633 38.1278 164.638 37.9853 164.247 37.7482L161.808 36.23C161.613 36.0817 161.418 35.8221 161.418 35.5431V33.012C161.418 32.5651 161.377 32.1812 161.865 32.1812Z" fill="white"/>
<g filter="url(#filter1_d_1_613)">
<mask id="path-5-inside-1_1_613" fill="white">
<path fill-rule="evenodd" clip-rule="evenodd" d="M132 33.9994C132 39.522 136.47 44 141.999 44C147.517 44 151.999 39.522 151.999 33.9994C151.999 28.4768 147.517 24 141.999 24C136.47 24 132 28.4768 132 33.9994Z"/>
</mask>
<path fill-rule="evenodd" clip-rule="evenodd" d="M132 33.9994C132 39.522 136.47 44 141.999 44C147.517 44 151.999 39.522 151.999 33.9994C151.999 28.4768 147.517 24 141.999 24C136.47 24 132 28.4768 132 33.9994Z" fill="#BAD9C8"/>
<path d="M130.333 33.9994C130.333 40.4414 135.548 45.6667 141.999 45.6667V42.3333C137.391 42.3333 133.667 38.6025 133.667 33.9994H130.333ZM141.999 45.6667C148.437 45.6667 153.665 40.4427 153.665 33.9994H150.332C150.332 38.6012 146.597 42.3333 141.999 42.3333V45.6667ZM153.665 33.9994C153.665 27.5558 148.437 22.3333 141.999 22.3333V25.6667C146.597 25.6667 150.332 29.3978 150.332 33.9994H153.665ZM141.999 22.3333C135.548 22.3333 130.333 27.5571 130.333 33.9994H133.667C133.667 29.3965 137.391 25.6667 141.999 25.6667V22.3333Z" fill="white" mask="url(#path-5-inside-1_1_613)"/>
<path d="M145.333 31.3633L145.001 32.4961H138.667L138.999 31.3633H145.333ZM142.362 39L138.784 34.625L138.764 33.8047H140.544C141.006 33.8047 141.4 33.7396 141.726 33.6094C142.052 33.4759 142.301 33.2773 142.474 33.0137C142.647 32.7467 142.733 32.4115 142.733 32.0078C142.733 31.4121 142.554 30.945 142.196 30.6064C141.837 30.2646 141.286 30.0937 140.544 30.0937H138.667L138.999 29H140.544C141.339 29 141.99 29.1318 142.499 29.3955C143.01 29.6559 143.388 30.014 143.632 30.4697C143.88 30.9222 144.004 31.4349 144.004 32.0078C144.004 32.5254 143.89 33.0023 143.662 33.4385C143.437 33.8714 143.075 34.2197 142.577 34.4834C142.081 34.7471 141.427 34.8789 140.612 34.8789H140.583L143.887 38.9219V39H142.362ZM145.333 29L145.001 30.1328L140.016 30.0937L140.348 29H145.333Z" fill="#149576"/>
</g>
<g filter="url(#filter2_d_1_613)">
<mask id="path-8-inside-2_1_613" fill="white">
<path fill-rule="evenodd" clip-rule="evenodd" d="M137 34.9994C137 40.522 141.47 45 146.999 45C152.517 45 156.999 40.522 156.999 34.9994C156.999 29.4768 152.517 25 146.999 25C141.47 25 137 29.4768 137 34.9994Z"/>
</mask>
<path fill-rule="evenodd" clip-rule="evenodd" d="M137 34.9994C137 40.522 141.47 45 146.999 45C152.517 45 156.999 40.522 156.999 34.9994C156.999 29.4768 152.517 25 146.999 25C141.47 25 137 29.4768 137 34.9994Z" fill="#BAD9C8"/>
<path d="M135.333 34.9994C135.333 41.4414 140.548 46.6667 146.999 46.6667V43.3333C142.391 43.3333 138.667 39.6025 138.667 34.9994H135.333ZM146.999 46.6667C153.437 46.6667 158.665 41.4427 158.665 34.9994H155.332C155.332 39.6012 151.597 43.3333 146.999 43.3333V46.6667ZM158.665 34.9994C158.665 28.5558 153.437 23.3333 146.999 23.3333V26.6667C151.597 26.6667 155.332 30.3978 155.332 34.9994H158.665ZM146.999 23.3333C140.548 23.3333 135.333 28.5571 135.333 34.9994H138.667C138.667 30.3965 142.391 26.6667 146.999 26.6667V23.3333Z" fill="white" mask="url(#path-8-inside-2_1_613)"/>
<path d="M150.333 32.3633L150.001 33.4961H143.667L143.999 32.3633H150.333ZM147.362 40L143.784 35.625L143.764 34.8047H145.544C146.006 34.8047 146.4 34.7396 146.726 34.6094C147.052 34.4759 147.301 34.2773 147.474 34.0137C147.647 33.7467 147.733 33.4115 147.733 33.0078C147.733 32.4121 147.554 31.945 147.196 31.6064C146.837 31.2646 146.286 31.0937 145.544 31.0937H143.667L143.999 30H145.544C146.339 30 146.99 30.1318 147.499 30.3955C148.01 30.6559 148.388 31.014 148.632 31.4697C148.88 31.9222 149.004 32.4349 149.004 33.0078C149.004 33.5254 148.89 34.0023 148.662 34.4385C148.437 34.8714 148.075 35.2197 147.577 35.4834C147.081 35.7471 146.427 35.8789 145.612 35.8789H145.583L148.887 39.9219V40H147.362ZM150.333 30L150.001 31.1328L145.016 31.0937L145.348 30H150.333Z" fill="white"/>
</g>
<path d="M106.196 101H102.571L108.095 85H112.454L117.97 101H114.345L110.337 88.6562H110.212L106.196 101ZM105.97 94.7109H114.532V97.3516H105.97V94.7109ZM126.071 89V91.5H118.665V89H126.071ZM120.36 101V88.1328C120.36 87.263 120.53 86.5417 120.868 85.9687C121.212 85.3958 121.681 84.9661 122.274 84.6797C122.868 84.3932 123.543 84.25 124.298 84.25C124.808 84.25 125.274 84.2891 125.696 84.3672C126.123 84.4453 126.441 84.5156 126.649 84.5781L126.056 87.0781C125.925 87.0365 125.764 86.9974 125.571 86.9609C125.384 86.9245 125.191 86.9062 124.993 86.9062C124.504 86.9062 124.162 87.0208 123.97 87.25C123.777 87.474 123.681 87.7891 123.681 88.1953V101H120.36ZM134.487 89V91.5H127.261V89H134.487ZM128.901 86.125H132.229V97.3125C132.229 97.6198 132.276 97.8594 132.37 98.0312C132.464 98.1979 132.594 98.3151 132.761 98.3828C132.933 98.4505 133.131 98.4844 133.354 98.4844C133.511 98.4844 133.667 98.4714 133.823 98.4453C133.979 98.4141 134.099 98.3906 134.183 98.375L134.706 100.852C134.539 100.904 134.305 100.964 134.003 101.031C133.701 101.104 133.334 101.148 132.901 101.164C132.099 101.195 131.396 101.089 130.792 100.844C130.193 100.599 129.727 100.219 129.394 99.7031C129.06 99.1875 128.896 98.5365 128.901 97.75V86.125ZM141.995 101.234C140.761 101.234 139.698 100.984 138.808 100.484C137.922 99.9792 137.24 99.2656 136.761 98.3437C136.282 97.4167 136.042 96.3203 136.042 95.0547C136.042 93.8203 136.282 92.737 136.761 91.8047C137.24 90.8724 137.914 90.1458 138.784 89.625C139.659 89.1042 140.685 88.8438 141.862 88.8438C142.654 88.8438 143.391 88.9714 144.073 89.2266C144.761 89.4766 145.36 89.8542 145.87 90.3594C146.386 90.8646 146.787 91.5 147.073 92.2656C147.36 93.026 147.503 93.9167 147.503 94.9375V95.8516H137.37V93.7891H144.37C144.37 93.3099 144.266 92.8854 144.058 92.5156C143.849 92.1458 143.56 91.8568 143.19 91.6484C142.826 91.4349 142.401 91.3281 141.917 91.3281C141.412 91.3281 140.964 91.4453 140.573 91.6797C140.188 91.9089 139.886 92.2187 139.667 92.6094C139.448 92.9948 139.336 93.4245 139.331 93.8984V95.8594C139.331 96.4531 139.44 96.9661 139.659 97.3984C139.883 97.8307 140.198 98.1641 140.604 98.3984C141.011 98.6328 141.493 98.75 142.05 98.75C142.42 98.75 142.758 98.6979 143.065 98.5938C143.373 98.4896 143.636 98.3333 143.854 98.125C144.073 97.9167 144.24 97.6615 144.354 97.3594L147.433 97.5625C147.276 98.3021 146.956 98.9479 146.472 99.5C145.993 100.047 145.373 100.474 144.612 100.781C143.857 101.083 142.985 101.234 141.995 101.234ZM149.675 101V89H152.901V91.0937H153.026C153.245 90.349 153.612 89.7865 154.128 89.4063C154.644 89.0208 155.237 88.8281 155.909 88.8281C156.076 88.8281 156.256 88.8385 156.448 88.8594C156.641 88.8802 156.81 88.9089 156.956 88.9453V91.8984C156.8 91.8516 156.584 91.8099 156.308 91.7734C156.032 91.737 155.779 91.7188 155.55 91.7188C155.06 91.7188 154.623 91.8255 154.237 92.0391C153.857 92.2474 153.555 92.5391 153.331 92.9141C153.112 93.2891 153.003 93.7214 153.003 94.2109V101H149.675ZM163.737 101V98.5625L169.433 93.2891C169.917 92.8203 170.323 92.3984 170.651 92.0234C170.985 91.6484 171.237 91.2812 171.409 90.9219C171.581 90.5573 171.667 90.1641 171.667 89.7422C171.667 89.2734 171.56 88.8698 171.347 88.5312C171.133 88.1875 170.841 87.9245 170.472 87.7422C170.102 87.5547 169.683 87.4609 169.214 87.4609C168.724 87.4609 168.297 87.5599 167.933 87.7578C167.568 87.9557 167.287 88.2396 167.089 88.6094C166.891 88.9792 166.792 89.4193 166.792 89.9297H163.581C163.581 88.8828 163.818 87.974 164.292 87.2031C164.766 86.4323 165.43 85.8359 166.284 85.4141C167.138 84.9922 168.123 84.7812 169.237 84.7812C170.383 84.7812 171.381 84.9844 172.229 85.3906C173.084 85.7917 173.748 86.349 174.222 87.0625C174.696 87.776 174.933 88.5937 174.933 89.5156C174.933 90.1198 174.813 90.7161 174.573 91.3047C174.339 91.8932 173.92 92.5469 173.315 93.2656C172.711 93.9792 171.86 94.8359 170.761 95.8359L168.425 98.125V98.2344H175.144V101H163.737ZM187.14 101.195C186.228 101.195 185.403 100.961 184.663 100.492C183.929 100.018 183.345 99.3229 182.913 98.4062C182.486 97.4844 182.272 96.3542 182.272 95.0156C182.272 93.6406 182.494 92.4974 182.937 91.5859C183.379 90.6693 183.968 89.9844 184.702 89.5313C185.442 89.0729 186.252 88.8438 187.132 88.8438C187.804 88.8438 188.364 88.9583 188.812 89.1875C189.265 89.4115 189.629 89.6927 189.905 90.0312C190.187 90.3646 190.4 90.6927 190.546 91.0156H190.647V85H193.968V101H190.687V99.0781H190.546C190.39 99.4115 190.168 99.7422 189.882 100.07C189.601 100.393 189.233 100.661 188.78 100.875C188.332 101.089 187.785 101.195 187.14 101.195ZM188.194 98.5469C188.731 98.5469 189.184 98.401 189.554 98.1094C189.929 97.8125 190.215 97.3984 190.413 96.8672C190.616 96.3359 190.718 95.7135 190.718 95C190.718 94.2865 190.619 93.6667 190.421 93.1406C190.223 92.6146 189.937 92.2083 189.562 91.9219C189.187 91.6354 188.731 91.4922 188.194 91.4922C187.647 91.4922 187.187 91.6406 186.812 91.9375C186.437 92.2344 186.153 92.6458 185.96 93.1719C185.767 93.6979 185.671 94.3073 185.671 95C185.671 95.6979 185.767 96.3151 185.96 96.8516C186.158 97.3828 186.442 97.7995 186.812 98.1016C187.187 98.3984 187.647 98.5469 188.194 98.5469ZM200.126 101.227C199.36 101.227 198.678 101.094 198.079 100.828C197.48 100.557 197.006 100.159 196.657 99.6328C196.313 99.1016 196.142 98.4401 196.142 97.6484C196.142 96.9818 196.264 96.4219 196.509 95.9687C196.754 95.5156 197.087 95.151 197.509 94.875C197.931 94.599 198.41 94.3906 198.946 94.25C199.488 94.1094 200.056 94.0104 200.649 93.9531C201.347 93.8802 201.91 93.8125 202.337 93.75C202.764 93.6823 203.074 93.5833 203.267 93.4531C203.459 93.3229 203.556 93.1302 203.556 92.875V92.8281C203.556 92.3333 203.399 91.9505 203.087 91.6797C202.78 91.4089 202.342 91.2734 201.774 91.2734C201.175 91.2734 200.699 91.4062 200.345 91.6719C199.991 91.9323 199.756 92.2604 199.642 92.6562L196.563 92.4062C196.72 91.6771 197.027 91.0469 197.485 90.5156C197.944 89.9792 198.535 89.5677 199.259 89.2812C199.988 88.9896 200.832 88.8438 201.79 88.8438C202.457 88.8438 203.095 88.9219 203.704 89.0781C204.319 89.2344 204.863 89.4766 205.337 89.8047C205.816 90.1328 206.194 90.5547 206.47 91.0703C206.746 91.5807 206.884 92.1927 206.884 92.9062V101H203.728V99.3359H203.634C203.441 99.7109 203.183 100.042 202.86 100.328C202.537 100.609 202.149 100.831 201.696 100.992C201.243 101.148 200.72 101.227 200.126 101.227ZM201.079 98.9297C201.569 98.9297 202.001 98.8333 202.376 98.6406C202.751 98.4427 203.045 98.1771 203.259 97.8438C203.472 97.5104 203.579 97.1328 203.579 96.7109V95.4375C203.475 95.5052 203.332 95.5677 203.149 95.625C202.972 95.6771 202.772 95.7266 202.548 95.7734C202.324 95.8151 202.1 95.8542 201.876 95.8906C201.652 95.9219 201.449 95.9505 201.267 95.9766C200.876 96.0339 200.535 96.125 200.243 96.25C199.951 96.375 199.725 96.5443 199.563 96.7578C199.402 96.9661 199.321 97.2266 199.321 97.5391C199.321 97.9922 199.485 98.3385 199.813 98.5781C200.147 98.8125 200.569 98.9297 201.079 98.9297ZM211.091 105.5C210.669 105.5 210.273 105.466 209.903 105.398C209.539 105.336 209.237 105.255 208.997 105.156L209.747 102.672C210.138 102.792 210.489 102.857 210.802 102.867C211.119 102.878 211.393 102.805 211.622 102.648C211.856 102.492 212.047 102.227 212.192 101.852L212.388 101.344L208.083 89H211.583L214.067 97.8125H214.192L216.7 89H220.224L215.56 102.297C215.336 102.943 215.031 103.505 214.646 103.984C214.265 104.469 213.784 104.841 213.2 105.102C212.617 105.367 211.914 105.5 211.091 105.5ZM231.911 92.4219L228.864 92.6094C228.812 92.349 228.7 92.1146 228.528 91.9062C228.356 91.6927 228.13 91.5234 227.849 91.3984C227.573 91.2682 227.242 91.2031 226.856 91.2031C226.341 91.2031 225.906 91.3125 225.552 91.5312C225.198 91.7448 225.021 92.0312 225.021 92.3906C225.021 92.6771 225.135 92.9193 225.364 93.1172C225.593 93.3151 225.987 93.474 226.544 93.5937L228.716 94.0312C229.882 94.2708 230.752 94.6562 231.325 95.1875C231.898 95.7187 232.185 96.4167 232.185 97.2812C232.185 98.0677 231.953 98.7578 231.489 99.3516C231.031 99.9453 230.401 100.409 229.599 100.742C228.802 101.07 227.882 101.234 226.841 101.234C225.252 101.234 223.987 100.904 223.044 100.242C222.106 99.5755 221.557 98.6693 221.396 97.5234L224.669 97.3516C224.768 97.8359 225.007 98.2057 225.388 98.4609C225.768 98.7109 226.255 98.8359 226.849 98.8359C227.432 98.8359 227.901 98.724 228.255 98.5C228.614 98.2708 228.797 97.9766 228.802 97.6172C228.797 97.3151 228.669 97.0677 228.419 96.875C228.169 96.6771 227.784 96.526 227.263 96.4219L225.185 96.0078C224.013 95.7734 223.14 95.3672 222.567 94.7891C222 94.2109 221.716 93.474 221.716 92.5781C221.716 91.8073 221.924 91.1432 222.341 90.5859C222.763 90.0286 223.354 89.599 224.114 89.2969C224.88 88.9948 225.776 88.8438 226.802 88.8438C228.317 88.8438 229.51 89.1641 230.38 89.8047C231.255 90.4453 231.765 91.3177 231.911 92.4219Z" fill="#17A280"/>
<path d="M38.1953 181.029C38.1461 180.592 37.9429 180.254 37.5859 180.013C37.2289 179.77 36.7796 179.649 36.2379 179.649C35.8501 179.649 35.5147 179.71 35.2315 179.833C34.9484 179.953 34.7283 180.12 34.5714 180.332C34.4175 180.541 34.3406 180.78 34.3406 181.048C34.3406 181.272 34.3929 181.466 34.4975 181.629C34.6052 181.792 34.7453 181.929 34.9176 182.04C35.093 182.148 35.2808 182.239 35.4808 182.312C35.6809 182.383 35.8732 182.442 36.0579 182.488L36.9812 182.728C37.2828 182.802 37.5921 182.902 37.9091 183.028C38.2261 183.154 38.52 183.32 38.7908 183.527C39.0617 183.733 39.2802 183.988 39.4464 184.293C39.6156 184.598 39.7003 184.962 39.7003 185.387C39.7003 185.923 39.5618 186.398 39.2848 186.814C39.0109 187.229 38.6123 187.557 38.0891 187.797C37.569 188.037 36.9396 188.157 36.201 188.157C35.4931 188.157 34.8807 188.045 34.3636 187.82C33.8466 187.595 33.4419 187.277 33.1495 186.864C32.8571 186.449 32.6955 185.956 32.6648 185.387H34.0959C34.1236 185.729 34.2344 186.013 34.4283 186.241C34.6252 186.466 34.8761 186.634 35.1808 186.744C35.4885 186.852 35.8255 186.906 36.1918 186.906C36.5949 186.906 36.9535 186.843 37.2674 186.717C37.5844 186.587 37.8337 186.409 38.0153 186.181C38.1969 185.95 38.2876 185.681 38.2876 185.373C38.2876 185.093 38.2076 184.864 38.0476 184.685C37.8906 184.507 37.6767 184.359 37.4059 184.242C37.1381 184.125 36.835 184.022 36.4964 183.933L35.3793 183.628C34.6222 183.422 34.022 183.119 33.5788 182.719C33.1387 182.319 32.9187 181.789 32.9187 181.131C32.9187 180.586 33.0664 180.11 33.3619 179.704C33.6573 179.298 34.0574 178.982 34.5621 178.758C35.0669 178.53 35.6362 178.416 36.2702 178.416C36.9104 178.416 37.4751 178.529 37.9645 178.753C38.4569 178.978 38.8447 179.287 39.1278 179.681C39.411 180.072 39.5587 180.521 39.571 181.029H38.1953ZM44.3502 188.143C43.6516 188.143 43.0499 187.994 42.5452 187.695C42.0435 187.394 41.6557 186.971 41.3818 186.426C41.111 185.878 40.9756 185.236 40.9756 184.501C40.9756 183.774 41.111 183.134 41.3818 182.58C41.6557 182.026 42.0374 181.594 42.5267 181.283C43.0191 180.972 43.5947 180.817 44.2533 180.817C44.6534 180.817 45.0412 180.883 45.4166 181.015C45.7921 181.148 46.1291 181.355 46.4276 181.638C46.7262 181.922 46.9616 182.289 47.134 182.742C47.3063 183.191 47.3925 183.737 47.3925 184.381V184.87H41.7558V183.836H46.0399C46.0399 183.473 45.966 183.151 45.8183 182.871C45.6705 182.588 45.4628 182.365 45.195 182.202C44.9304 182.039 44.6195 181.957 44.2625 181.957C43.8747 181.957 43.5362 182.052 43.2469 182.243C42.9607 182.431 42.7391 182.677 42.5821 182.982C42.4282 183.283 42.3513 183.611 42.3513 183.965V184.773C42.3513 185.247 42.4344 185.65 42.6006 185.983C42.7699 186.315 43.0053 186.569 43.3069 186.744C43.6085 186.917 43.9609 187.003 44.3641 187.003C44.6257 187.003 44.8642 186.966 45.0796 186.892C45.2951 186.815 45.4813 186.701 45.6382 186.55C45.7952 186.4 45.9152 186.213 45.9983 185.992L47.3048 186.227C47.2001 186.612 47.0124 186.949 46.7416 187.238C46.4738 187.525 46.1368 187.748 45.7306 187.908C45.3274 188.065 44.8673 188.143 44.3502 188.143ZM52.234 180.909V182.017H48.3608V180.909H52.234ZM49.3995 179.21H50.7798V185.918C50.7798 186.186 50.8198 186.387 50.8999 186.523C50.9799 186.655 51.083 186.746 51.2092 186.795C51.3384 186.841 51.4785 186.864 51.6293 186.864C51.7401 186.864 51.837 186.857 51.9201 186.841C52.0032 186.826 52.0678 186.814 52.114 186.804L52.3633 187.945C52.2833 187.975 52.1694 188.006 52.0217 188.037C51.8739 188.071 51.6893 188.089 51.4677 188.092C51.1045 188.098 50.766 188.034 50.4521 187.898C50.1381 187.763 49.8842 187.554 49.6903 187.271C49.4964 186.987 49.3995 186.632 49.3995 186.204V179.21ZM57.0709 180.909V182.017H53.1977V180.909H57.0709ZM54.2364 179.21H55.6167V185.918C55.6167 186.186 55.6568 186.387 55.7368 186.523C55.8168 186.655 55.9199 186.746 56.0461 186.795C56.1753 186.841 56.3154 186.864 56.4662 186.864C56.577 186.864 56.6739 186.857 56.757 186.841C56.8401 186.826 56.9047 186.814 56.9509 186.804L57.2002 187.945C57.1202 187.975 57.0063 188.006 56.8586 188.037C56.7108 188.071 56.5262 188.089 56.3046 188.092C55.9414 188.098 55.6029 188.034 55.289 187.898C54.9751 187.763 54.7211 187.554 54.5273 187.271C54.3334 186.987 54.2364 186.632 54.2364 186.204V179.21ZM60.1305 178.545V188H58.7502V178.545H60.1305ZM65.0436 188.143C64.345 188.143 63.7433 187.994 63.2385 187.695C62.7369 187.394 62.3491 186.971 62.0752 186.426C61.8044 185.878 61.6689 185.236 61.6689 184.501C61.6689 183.774 61.8044 183.134 62.0752 182.58C62.3491 182.026 62.7307 181.594 63.2201 181.283C63.7125 180.972 64.288 180.817 64.9466 180.817C65.3467 180.817 65.7345 180.883 66.11 181.015C66.4855 181.148 66.8225 181.355 67.121 181.638C67.4195 181.922 67.655 182.289 67.8273 182.742C67.9997 183.191 68.0858 183.737 68.0858 184.381V184.87H62.4491V183.836H66.7332C66.7332 183.473 66.6594 183.151 66.5116 182.871C66.3639 182.588 66.1562 182.365 65.8884 182.202C65.6237 182.039 65.3129 181.957 64.9559 181.957C64.5681 181.957 64.2296 182.052 63.9403 182.243C63.654 182.431 63.4324 182.677 63.2755 182.982C63.1216 183.283 63.0447 183.611 63.0447 183.965V184.773C63.0447 185.247 63.1278 185.65 63.2939 185.983C63.4632 186.315 63.6987 186.569 64.0003 186.744C64.3019 186.917 64.6543 187.003 65.0574 187.003C65.319 187.003 65.5576 186.966 65.773 186.892C65.9884 186.815 66.1746 186.701 66.3316 186.55C66.4885 186.4 66.6086 186.213 66.6917 185.992L67.9981 186.227C67.8935 186.612 67.7058 186.949 67.4349 187.238C67.1672 187.525 66.8302 187.748 66.4239 187.908C66.0207 188.065 65.5606 188.143 65.0436 188.143ZM69.6174 188V180.909H70.9423V182.063H71.03C71.1777 181.672 71.4193 181.368 71.7548 181.149C72.0903 180.928 72.4919 180.817 72.9597 180.817C73.4337 180.817 73.8307 180.928 74.1507 181.149C74.4739 181.371 74.7124 181.675 74.8663 182.063H74.9402C75.1094 181.685 75.3787 181.383 75.748 181.158C76.1174 180.931 76.5575 180.817 77.0684 180.817C77.7116 180.817 78.2363 181.018 78.6426 181.422C79.0519 181.825 79.2566 182.433 79.2566 183.245V188H77.8762V183.374C77.8762 182.894 77.7454 182.546 77.4838 182.331C77.2222 182.116 76.9099 182.008 76.5467 182.008C76.0974 182.008 75.748 182.146 75.4988 182.423C75.2495 182.697 75.1248 183.05 75.1248 183.48V188H73.7491V183.287C73.7491 182.902 73.6291 182.593 73.389 182.359C73.149 182.125 72.8366 182.008 72.4519 182.008C72.1903 182.008 71.9487 182.077 71.7271 182.216C71.5086 182.351 71.3316 182.54 71.1962 182.783C71.0639 183.027 70.9977 183.308 70.9977 183.628V188H69.6174ZM84.1627 188.143C83.4641 188.143 82.8624 187.994 82.3577 187.695C81.856 187.394 81.4682 186.971 81.1943 186.426C80.9235 185.878 80.7881 185.236 80.7881 184.501C80.7881 183.774 80.9235 183.134 81.1943 182.58C81.4682 182.026 81.8499 181.594 82.3392 181.283C82.8316 180.972 83.4072 180.817 84.0658 180.817C84.4659 180.817 84.8537 180.883 85.2291 181.015C85.6046 181.148 85.9416 181.355 86.2401 181.638C86.5387 181.922 86.7741 182.289 86.9465 182.742C87.1188 183.191 87.205 183.737 87.205 184.381V184.87H81.5683V183.836H85.8524C85.8524 183.473 85.7785 183.151 85.6308 182.871C85.483 182.588 85.2753 182.365 85.0075 182.202C84.7429 182.039 84.432 181.957 84.075 181.957C83.6872 181.957 83.3487 182.052 83.0594 182.243C82.7732 182.431 82.5516 182.677 82.3946 182.982C82.2407 183.283 82.1638 183.611 82.1638 183.965V184.773C82.1638 185.247 82.2469 185.65 82.4131 185.983C82.5824 186.315 82.8178 186.569 83.1194 186.744C83.421 186.917 83.7734 187.003 84.1766 187.003C84.4382 187.003 84.6767 186.966 84.8921 186.892C85.1076 186.815 85.2938 186.701 85.4507 186.55C85.6077 186.4 85.7277 186.213 85.8108 185.992L87.1173 186.227C87.0126 186.612 86.8249 186.949 86.5541 187.238C86.2863 187.525 85.9493 187.748 85.5431 187.908C85.1399 188.065 84.6798 188.143 84.1627 188.143ZM90.1168 183.79V188H88.7365V180.909H90.0614V182.063H90.1491C90.3123 181.688 90.5677 181.386 90.9155 181.158C91.2663 180.931 91.708 180.817 92.2404 180.817C92.7236 180.817 93.1468 180.918 93.5099 181.121C93.8731 181.321 94.1547 181.62 94.3548 182.017C94.5548 182.414 94.6548 182.905 94.6548 183.49V188H93.2745V183.656C93.2745 183.142 93.1406 182.74 92.8729 182.451C92.6051 182.159 92.2373 182.012 91.7695 182.012C91.4495 182.012 91.1648 182.082 90.9155 182.22C90.6693 182.359 90.4738 182.562 90.3292 182.83C90.1876 183.094 90.1168 183.414 90.1168 183.79ZM99.8161 180.909V182.017H95.9428V180.909H99.8161ZM96.9815 179.21H98.3619V185.918C98.3619 186.186 98.4019 186.387 98.4819 186.523C98.5619 186.655 98.665 186.746 98.7912 186.795C98.9205 186.841 99.0605 186.864 99.2113 186.864C99.3221 186.864 99.419 186.857 99.5021 186.841C99.5852 186.826 99.6499 186.814 99.696 186.804L99.9453 187.945C99.8653 187.975 99.7514 188.006 99.6037 188.037C99.456 188.071 99.2713 188.089 99.0497 188.092C98.6866 188.098 98.348 188.034 98.0341 187.898C97.7202 187.763 97.4663 187.554 97.2724 187.271C97.0785 186.987 96.9815 186.632 96.9815 186.204V179.21ZM108.093 180.909V182.017H104.22V180.909H108.093ZM105.259 179.21H106.639V185.918C106.639 186.186 106.679 186.387 106.759 186.523C106.839 186.655 106.942 186.746 107.069 186.795C107.198 186.841 107.338 186.864 107.489 186.864C107.599 186.864 107.696 186.857 107.779 186.841C107.863 186.826 107.927 186.814 107.973 186.804L108.223 187.945C108.143 187.975 108.029 188.006 107.881 188.037C107.733 188.071 107.549 188.089 107.327 188.092C106.964 188.098 106.625 188.034 106.311 187.898C105.998 187.763 105.744 187.554 105.55 187.271C105.356 186.987 105.259 186.632 105.259 186.204V179.21ZM109.62 188V180.909H111.001V188H109.62ZM110.317 179.815C110.077 179.815 109.871 179.735 109.699 179.575C109.53 179.412 109.445 179.218 109.445 178.993C109.445 178.766 109.53 178.572 109.699 178.412C109.871 178.248 110.077 178.167 110.317 178.167C110.557 178.167 110.762 178.248 110.931 178.412C111.104 178.572 111.19 178.766 111.19 178.993C111.19 179.218 111.104 179.412 110.931 179.575C110.762 179.735 110.557 179.815 110.317 179.815ZM112.858 188V180.909H114.183V182.063H114.27C114.418 181.672 114.66 181.368 114.995 181.149C115.33 180.928 115.732 180.817 116.2 180.817C116.674 180.817 117.071 180.928 117.391 181.149C117.714 181.371 117.953 181.675 118.107 182.063H118.18C118.35 181.685 118.619 181.383 118.988 181.158C119.358 180.931 119.798 180.817 120.309 180.817C120.952 180.817 121.477 181.018 121.883 181.422C122.292 181.825 122.497 182.433 122.497 183.245V188H121.116V183.374C121.116 182.894 120.986 182.546 120.724 182.331C120.462 182.116 120.15 182.008 119.787 182.008C119.338 182.008 118.988 182.146 118.739 182.423C118.49 182.697 118.365 183.05 118.365 183.48V188H116.989V183.287C116.989 182.902 116.869 182.593 116.629 182.359C116.389 182.125 116.077 182.008 115.692 182.008C115.431 182.008 115.189 182.077 114.967 182.216C114.749 182.351 114.572 182.54 114.436 182.783C114.304 183.027 114.238 183.308 114.238 183.628V188H112.858ZM127.403 188.143C126.704 188.143 126.103 187.994 125.598 187.695C125.096 187.394 124.708 186.971 124.435 186.426C124.164 185.878 124.028 185.236 124.028 184.501C124.028 183.774 124.164 183.134 124.435 182.58C124.708 182.026 125.09 181.594 125.579 181.283C126.072 180.972 126.647 180.817 127.306 180.817C127.706 180.817 128.094 180.883 128.469 181.015C128.845 181.148 129.182 181.355 129.48 181.638C129.779 181.922 130.014 182.289 130.187 182.742C130.359 183.191 130.445 183.737 130.445 184.381V184.87H124.809V183.836H129.093C129.093 183.473 129.019 183.151 128.871 182.871C128.723 182.588 128.516 182.365 128.248 182.202C127.983 182.039 127.672 181.957 127.315 181.957C126.927 181.957 126.589 182.052 126.3 182.243C126.013 182.431 125.792 182.677 125.635 182.982C125.481 183.283 125.404 183.611 125.404 183.965V184.773C125.404 185.247 125.487 185.65 125.653 185.983C125.823 186.315 126.058 186.569 126.36 186.744C126.661 186.917 127.014 187.003 127.417 187.003C127.678 187.003 127.917 186.966 128.132 186.892C128.348 186.815 128.534 186.701 128.691 186.55C128.848 186.4 128.968 186.213 129.051 185.992L130.358 186.227C130.253 186.612 130.065 186.949 129.794 187.238C129.527 187.525 129.19 187.748 128.783 187.908C128.38 188.065 127.92 188.143 127.403 188.143Z" fill="#828282"/>
<path d="M33.0387 208.545H34.7699L37.7798 215.895H37.8906L40.9006 208.545H42.6317V218H41.2745V211.158H41.1868L38.3984 217.986H37.272L34.4837 211.154H34.396V218H33.0387V208.545ZM46.6585 218.157C46.2091 218.157 45.8029 218.074 45.4397 217.908C45.0766 217.738 44.7888 217.494 44.5764 217.174C44.3672 216.854 44.2625 216.461 44.2625 215.996C44.2625 215.596 44.3395 215.267 44.4933 215.009C44.6472 214.75 44.855 214.545 45.1166 214.395C45.3782 214.244 45.6705 214.13 45.9937 214.053C46.3169 213.976 46.6462 213.917 46.9816 213.877C47.4063 213.828 47.751 213.788 48.0157 213.757C48.2804 213.724 48.4727 213.67 48.5928 213.596C48.7128 213.522 48.7728 213.402 48.7728 213.236V213.203C48.7728 212.8 48.6589 212.488 48.4312 212.266C48.2065 212.045 47.8711 211.934 47.4248 211.934C46.9601 211.934 46.5938 212.037 46.3261 212.243C46.0614 212.446 45.8783 212.673 45.7767 212.922L44.4795 212.626C44.6334 212.196 44.858 211.848 45.1535 211.583C45.452 211.315 45.7952 211.121 46.183 211.001C46.5708 210.878 46.9785 210.817 47.4063 210.817C47.6895 210.817 47.9896 210.851 48.3066 210.918C48.6266 210.983 48.9252 211.103 49.2021 211.278C49.4822 211.454 49.7115 211.705 49.89 212.031C50.0685 212.354 50.1578 212.774 50.1578 213.291V218H48.8097V217.031H48.7544C48.6651 217.209 48.5312 217.384 48.3527 217.557C48.1742 217.729 47.9449 217.872 47.6649 217.986C47.3848 218.1 47.0493 218.157 46.6585 218.157ZM46.9585 217.049C47.3402 217.049 47.6664 216.974 47.9372 216.823C48.2111 216.672 48.4189 216.475 48.5605 216.232C48.7051 215.986 48.7774 215.723 48.7774 215.442V214.528C48.7282 214.578 48.6328 214.624 48.4912 214.667C48.3527 214.707 48.1942 214.742 48.0157 214.773C47.8372 214.801 47.6633 214.827 47.4941 214.852C47.3248 214.873 47.1832 214.892 47.0693 214.907C46.8016 214.941 46.5569 214.998 46.3353 215.078C46.1168 215.158 45.9414 215.273 45.809 215.424C45.6798 215.572 45.6151 215.769 45.6151 216.015C45.6151 216.357 45.7413 216.615 45.9937 216.79C46.2461 216.963 46.5677 217.049 46.9585 217.049ZM53.0858 210.909L54.6507 213.67L56.2296 210.909H57.7392L55.5279 214.455L57.7576 218H56.248L54.6507 215.35L53.0581 218H51.5439L53.7505 214.455L51.5716 210.909H53.0858ZM64.6604 218.157C64.2111 218.157 63.8048 218.074 63.4417 217.908C63.0785 217.738 62.7907 217.494 62.5784 217.174C62.3691 216.854 62.2645 216.461 62.2645 215.996C62.2645 215.596 62.3414 215.267 62.4953 215.009C62.6492 214.75 62.8569 214.545 63.1185 214.395C63.3801 214.244 63.6725 214.13 63.9956 214.053C64.3188 213.976 64.6481 213.917 64.9836 213.877C65.4083 213.828 65.753 213.788 66.0177 213.757C66.2823 213.724 66.4747 213.67 66.5947 213.596C66.7148 213.522 66.7748 213.402 66.7748 213.236V213.203C66.7748 212.8 66.6609 212.488 66.4331 212.266C66.2085 212.045 65.873 211.934 65.4268 211.934C64.962 211.934 64.5958 212.037 64.328 212.243C64.0634 212.446 63.8802 212.673 63.7787 212.922L62.4814 212.626C62.6353 212.196 62.86 211.848 63.1555 211.583C63.454 211.315 63.7971 211.121 64.1849 211.001C64.5727 210.878 64.9805 210.817 65.4083 210.817C65.6914 210.817 65.9915 210.851 66.3085 210.918C66.6286 210.983 66.9271 211.103 67.2041 211.278C67.4842 211.454 67.7135 211.705 67.892 212.031C68.0705 212.354 68.1597 212.774 68.1597 213.291V218H66.8117V217.031H66.7563C66.6671 217.209 66.5332 217.384 66.3547 217.557C66.1762 217.729 65.9469 217.872 65.6668 217.986C65.3867 218.1 65.0513 218.157 64.6604 218.157ZM64.9605 217.049C65.3421 217.049 65.6684 216.974 65.9392 216.823C66.2131 216.672 66.4208 216.475 66.5624 216.232C66.7071 215.986 66.7794 215.723 66.7794 215.442V214.528C66.7301 214.578 66.6347 214.624 66.4932 214.667C66.3547 214.707 66.1962 214.742 66.0177 214.773C65.8392 214.801 65.6653 214.827 65.496 214.852C65.3267 214.873 65.1852 214.892 65.0713 214.907C64.8035 214.941 64.5589 214.998 64.3373 215.078C64.1188 215.158 63.9433 215.273 63.811 215.424C63.6817 215.572 63.6171 215.769 63.6171 216.015C63.6171 216.357 63.7433 216.615 63.9956 216.79C64.248 216.963 64.5696 217.049 64.9605 217.049ZM69.9982 218V210.909H71.3232V212.063H71.4109C71.5586 211.672 71.8002 211.368 72.1357 211.149C72.4711 210.928 72.8728 210.817 73.3406 210.817C73.8145 210.817 74.2115 210.928 74.5316 211.149C74.8548 211.371 75.0933 211.675 75.2472 212.063H75.321C75.4903 211.685 75.7596 211.383 76.1289 211.158C76.4982 210.931 76.9383 210.817 77.4492 210.817C78.0924 210.817 78.6172 211.018 79.0234 211.422C79.4328 211.825 79.6374 212.433 79.6374 213.245V218H78.2571V213.374C78.2571 212.894 78.1263 212.546 77.8647 212.331C77.6031 212.116 77.2907 212.008 76.9276 212.008C76.4782 212.008 76.1289 212.146 75.8796 212.423C75.6303 212.697 75.5057 213.05 75.5057 213.48V218H74.13V213.287C74.13 212.902 74.0099 212.593 73.7699 212.359C73.5298 212.125 73.2174 212.008 72.8327 212.008C72.5711 212.008 72.3295 212.077 72.108 212.216C71.8894 212.351 71.7125 212.54 71.5771 212.783C71.4447 213.027 71.3786 213.308 71.3786 213.628V218H69.9982ZM84.4743 218.143C83.8096 218.143 83.2294 217.991 82.7339 217.686C82.2384 217.381 81.8537 216.955 81.5798 216.407C81.3059 215.859 81.1689 215.219 81.1689 214.487C81.1689 213.751 81.3059 213.108 81.5798 212.557C81.8537 212.006 82.2384 211.578 82.7339 211.274C83.2294 210.969 83.8096 210.817 84.4743 210.817C85.1391 210.817 85.7193 210.969 86.2148 211.274C86.7103 211.578 87.095 212.006 87.3689 212.557C87.6428 213.108 87.7797 213.751 87.7797 214.487C87.7797 215.219 87.6428 215.859 87.3689 216.407C87.095 216.955 86.7103 217.381 86.2148 217.686C85.7193 217.991 85.1391 218.143 84.4743 218.143ZM84.479 216.984C84.9098 216.984 85.2668 216.871 85.55 216.643C85.8331 216.415 86.0424 216.112 86.1778 215.733C86.3163 215.355 86.3856 214.938 86.3856 214.482C86.3856 214.03 86.3163 213.614 86.1778 213.236C86.0424 212.854 85.8331 212.548 85.55 212.317C85.2668 212.086 84.9098 211.971 84.479 211.971C84.045 211.971 83.6849 212.086 83.3987 212.317C83.1156 212.548 82.9047 212.854 82.7662 213.236C82.6308 213.614 82.5631 214.03 82.5631 214.482C82.5631 214.938 82.6308 215.355 82.7662 215.733C82.9047 216.112 83.1156 216.415 83.3987 216.643C83.6849 216.871 84.045 216.984 84.479 216.984ZM93.8123 215.059V210.909H95.1973V218H93.84V216.772H93.7662C93.603 217.151 93.3414 217.466 92.9814 217.718C92.6243 217.968 92.1796 218.092 91.6472 218.092C91.1917 218.092 90.7885 217.992 90.4377 217.792C90.0899 217.589 89.816 217.289 89.6159 216.892C89.419 216.495 89.3205 216.004 89.3205 215.419V210.909H90.7008V215.253C90.7008 215.736 90.8347 216.121 91.1025 216.407C91.3702 216.694 91.718 216.837 92.1458 216.837C92.4043 216.837 92.6613 216.772 92.9167 216.643C93.1752 216.513 93.3891 216.318 93.5584 216.056C93.7308 215.795 93.8154 215.462 93.8123 215.059ZM98.4323 213.79V218H97.0519V210.909H98.3769V212.063H98.4646C98.6277 211.688 98.8831 211.386 99.2309 211.158C99.5818 210.931 100.023 210.817 100.556 210.817C101.039 210.817 101.462 210.918 101.825 211.121C102.189 211.321 102.47 211.62 102.67 212.017C102.87 212.414 102.97 212.905 102.97 213.49V218H101.59V213.656C101.59 213.142 101.456 212.74 101.188 212.451C100.921 212.159 100.553 212.012 100.085 212.012C99.7649 212.012 99.4802 212.082 99.2309 212.22C98.9847 212.359 98.7893 212.562 98.6446 212.83C98.503 213.094 98.4323 213.414 98.4323 213.79ZM108.131 210.909V212.017H104.258V210.909H108.131ZM105.297 209.21H106.677V215.918C106.677 216.186 106.717 216.387 106.797 216.523C106.877 216.655 106.98 216.746 107.107 216.795C107.236 216.841 107.376 216.864 107.527 216.864C107.638 216.864 107.734 216.857 107.818 216.841C107.901 216.826 107.965 216.814 108.011 216.804L108.261 217.945C108.181 217.975 108.067 218.006 107.919 218.037C107.771 218.071 107.587 218.089 107.365 218.092C107.002 218.098 106.663 218.034 106.35 217.898C106.036 217.763 105.782 217.554 105.588 217.271C105.394 216.987 105.297 216.632 105.297 216.204V209.21ZM118.412 212.64L117.161 212.862C117.109 212.702 117.026 212.549 116.912 212.405C116.801 212.26 116.65 212.142 116.46 212.049C116.269 211.957 116.03 211.911 115.744 211.911C115.353 211.911 115.027 211.999 114.765 212.174C114.504 212.346 114.373 212.569 114.373 212.843C114.373 213.08 114.461 213.271 114.636 213.416C114.812 213.56 115.095 213.679 115.486 213.771L116.612 214.03C117.264 214.181 117.751 214.413 118.071 214.727C118.391 215.041 118.551 215.449 118.551 215.95C118.551 216.375 118.428 216.754 118.182 217.086C117.938 217.415 117.598 217.674 117.161 217.862C116.727 218.049 116.224 218.143 115.652 218.143C114.858 218.143 114.21 217.974 113.708 217.635C113.207 217.294 112.899 216.809 112.785 216.181L114.119 215.978C114.202 216.326 114.373 216.589 114.631 216.767C114.89 216.943 115.227 217.031 115.642 217.031C116.095 217.031 116.457 216.937 116.727 216.749C116.998 216.558 117.134 216.326 117.134 216.052C117.134 215.83 117.051 215.644 116.884 215.493C116.721 215.342 116.47 215.229 116.132 215.152L114.932 214.888C114.27 214.738 113.781 214.498 113.464 214.168C113.15 213.839 112.993 213.422 112.993 212.917C112.993 212.499 113.11 212.132 113.343 211.819C113.577 211.505 113.901 211.26 114.313 211.085C114.725 210.906 115.198 210.817 115.73 210.817C116.497 210.817 117.1 210.983 117.54 211.315C117.98 211.645 118.271 212.086 118.412 212.64ZM123.125 218.143C122.426 218.143 121.824 217.994 121.32 217.695C120.818 217.394 120.43 216.971 120.156 216.426C119.885 215.878 119.75 215.236 119.75 214.501C119.75 213.774 119.885 213.134 120.156 212.58C120.43 212.026 120.812 211.594 121.301 211.283C121.794 210.972 122.369 210.817 123.028 210.817C123.428 210.817 123.816 210.883 124.191 211.015C124.567 211.148 124.904 211.355 125.202 211.638C125.501 211.922 125.736 212.289 125.908 212.742C126.081 213.191 126.167 213.737 126.167 214.381V214.87H120.53V213.836H124.814C124.814 213.473 124.74 213.151 124.593 212.871C124.445 212.588 124.237 212.365 123.969 212.202C123.705 212.039 123.394 211.957 123.037 211.957C122.649 211.957 122.311 212.052 122.021 212.243C121.735 212.431 121.513 212.677 121.357 212.982C121.203 213.283 121.126 213.611 121.126 213.965V214.773C121.126 215.247 121.209 215.65 121.375 215.983C121.544 216.315 121.78 216.569 122.081 216.744C122.383 216.917 122.735 217.003 123.138 217.003C123.4 217.003 123.639 216.966 123.854 216.892C124.069 216.815 124.256 216.701 124.413 216.55C124.57 216.4 124.69 216.213 124.773 215.992L126.079 216.227C125.975 216.612 125.787 216.949 125.516 217.238C125.248 217.525 124.911 217.748 124.505 217.908C124.102 218.065 123.642 218.143 123.125 218.143ZM131.008 210.909V212.017H127.135V210.909H131.008ZM128.174 209.21H129.554V215.918C129.554 216.186 129.594 216.387 129.674 216.523C129.754 216.655 129.857 216.746 129.984 216.795C130.113 216.841 130.253 216.864 130.404 216.864C130.514 216.864 130.611 216.857 130.695 216.841C130.778 216.826 130.842 216.814 130.888 216.804L131.138 217.945C131.058 217.975 130.944 218.006 130.796 218.037C130.648 218.071 130.464 218.089 130.242 218.092C129.879 218.098 129.54 218.034 129.226 217.898C128.913 217.763 128.659 217.554 128.465 217.271C128.271 216.987 128.174 216.632 128.174 216.204V209.21ZM135.845 210.909V212.017H131.972V210.909H135.845ZM133.011 209.21H134.391V215.918C134.391 216.186 134.431 216.387 134.511 216.523C134.591 216.655 134.694 216.746 134.82 216.795C134.95 216.841 135.09 216.864 135.241 216.864C135.351 216.864 135.448 216.857 135.531 216.841C135.615 216.826 135.679 216.814 135.725 216.804L135.975 217.945C135.895 217.975 135.781 218.006 135.633 218.037C135.485 218.071 135.301 218.089 135.079 218.092C134.716 218.098 134.377 218.034 134.063 217.898C133.749 217.763 133.496 217.554 133.302 217.271C133.108 216.987 133.011 216.632 133.011 216.204V209.21ZM138.905 208.545V218H137.525V208.545H138.905ZM143.818 218.143C143.119 218.143 142.518 217.994 142.013 217.695C141.511 217.394 141.124 216.971 140.85 216.426C140.579 215.878 140.443 215.236 140.443 214.501C140.443 213.774 140.579 213.134 140.85 212.58C141.124 212.026 141.505 211.594 141.994 211.283C142.487 210.972 143.062 210.817 143.721 210.817C144.121 210.817 144.509 210.883 144.884 211.015C145.26 211.148 145.597 211.355 145.895 211.638C146.194 211.922 146.429 212.289 146.602 212.742C146.774 213.191 146.86 213.737 146.86 214.381V214.87H141.224V213.836H145.508C145.508 213.473 145.434 213.151 145.286 212.871C145.138 212.588 144.931 212.365 144.663 212.202C144.398 212.039 144.087 211.957 143.73 211.957C143.343 211.957 143.004 212.052 142.715 212.243C142.428 212.431 142.207 212.677 142.05 212.982C141.896 213.283 141.819 213.611 141.819 213.965V214.773C141.819 215.247 141.902 215.65 142.068 215.983C142.238 216.315 142.473 216.569 142.775 216.744C143.076 216.917 143.429 217.003 143.832 217.003C144.093 217.003 144.332 216.966 144.547 216.892C144.763 216.815 144.949 216.701 145.106 216.55C145.263 216.4 145.383 216.213 145.466 215.992L146.773 216.227C146.668 216.612 146.48 216.949 146.209 217.238C145.942 217.525 145.605 217.748 145.198 217.908C144.795 218.065 144.335 218.143 143.818 218.143ZM151.046 218.138C150.474 218.138 149.963 217.992 149.514 217.7C149.067 217.404 148.716 216.984 148.461 216.44C148.209 215.892 148.082 215.235 148.082 214.468C148.082 213.702 148.21 213.047 148.466 212.502C148.724 211.957 149.078 211.54 149.527 211.251C149.977 210.961 150.486 210.817 151.055 210.817C151.496 210.817 151.85 210.891 152.117 211.038C152.388 211.183 152.597 211.352 152.745 211.546C152.896 211.74 153.013 211.911 153.096 212.059H153.179V208.545H154.559V218H153.211V216.897H153.096C153.013 217.047 152.893 217.22 152.736 217.414C152.582 217.608 152.37 217.777 152.099 217.922C151.828 218.066 151.477 218.138 151.046 218.138ZM151.351 216.961C151.748 216.961 152.083 216.857 152.357 216.647C152.634 216.435 152.844 216.141 152.985 215.766C153.13 215.39 153.202 214.953 153.202 214.455C153.202 213.962 153.131 213.531 152.99 213.162C152.848 212.793 152.64 212.505 152.367 212.299C152.093 212.092 151.754 211.989 151.351 211.989C150.935 211.989 150.589 212.097 150.312 212.312C150.035 212.528 149.826 212.822 149.684 213.194C149.546 213.567 149.477 213.987 149.477 214.455C149.477 214.929 149.547 215.355 149.689 215.733C149.831 216.112 150.04 216.412 150.317 216.634C150.597 216.852 150.942 216.961 151.351 216.961Z" fill="#828282"/>
<path d="M194.821 179.773V178.545H202.139V179.773H199.189V188H197.767V179.773H194.821ZM205.649 187.4V181.158H206.891V187.4H205.649ZM203.152 184.898V183.656H209.393V184.898H203.152ZM211.129 188V186.966L214.328 183.651C214.67 183.291 214.952 182.976 215.173 182.705C215.398 182.431 215.566 182.171 215.676 181.925C215.787 181.679 215.843 181.417 215.843 181.14C215.843 180.826 215.769 180.555 215.621 180.327C215.473 180.097 215.272 179.92 215.016 179.797C214.761 179.67 214.473 179.607 214.153 179.607C213.814 179.607 213.519 179.676 213.267 179.815C213.014 179.953 212.82 180.149 212.685 180.401C212.55 180.654 212.482 180.949 212.482 181.288H211.12C211.12 180.712 211.252 180.209 211.517 179.778C211.782 179.347 212.145 179.013 212.606 178.776C213.068 178.536 213.593 178.416 214.181 178.416C214.775 178.416 215.298 178.535 215.75 178.772C216.206 179.006 216.561 179.326 216.817 179.732C217.072 180.135 217.2 180.591 217.2 181.098C217.2 181.449 217.134 181.792 217.001 182.128C216.872 182.463 216.646 182.837 216.323 183.25C216 183.659 215.55 184.156 214.975 184.741L213.096 186.707V186.777H217.352V188H211.129ZM225.215 188.138C224.643 188.138 224.132 187.992 223.683 187.7C223.236 187.404 222.885 186.984 222.63 186.44C222.378 185.892 222.251 185.235 222.251 184.468C222.251 183.702 222.379 183.047 222.635 182.502C222.893 181.957 223.247 181.54 223.696 181.251C224.146 180.961 224.655 180.817 225.224 180.817C225.665 180.817 226.018 180.891 226.286 181.038C226.557 181.183 226.766 181.352 226.914 181.546C227.065 181.74 227.182 181.911 227.265 182.059H227.348V178.545H228.728V188H227.38V186.897H227.265C227.182 187.047 227.062 187.22 226.905 187.414C226.751 187.608 226.539 187.777 226.268 187.922C225.997 188.066 225.646 188.138 225.215 188.138ZM225.52 186.961C225.917 186.961 226.252 186.857 226.526 186.647C226.803 186.435 227.013 186.141 227.154 185.766C227.299 185.39 227.371 184.953 227.371 184.455C227.371 183.962 227.3 183.531 227.159 183.162C227.017 182.793 226.809 182.505 226.536 182.299C226.262 182.092 225.923 181.989 225.52 181.989C225.104 181.989 224.758 182.097 224.481 182.312C224.204 182.528 223.995 182.822 223.853 183.194C223.715 183.567 223.646 183.987 223.646 184.455C223.646 184.929 223.716 185.355 223.858 185.733C224 186.112 224.209 186.412 224.486 186.634C224.766 186.852 225.111 186.961 225.52 186.961ZM232.762 188.157C232.313 188.157 231.906 188.074 231.543 187.908C231.18 187.738 230.892 187.494 230.68 187.174C230.471 186.854 230.366 186.461 230.366 185.996C230.366 185.596 230.443 185.267 230.597 185.009C230.751 184.75 230.958 184.545 231.22 184.395C231.482 184.244 231.774 184.13 232.097 184.053C232.42 183.976 232.75 183.917 233.085 183.877C233.51 183.828 233.855 183.788 234.119 183.757C234.384 183.724 234.576 183.67 234.696 183.596C234.816 183.522 234.876 183.402 234.876 183.236V183.203C234.876 182.8 234.762 182.488 234.535 182.266C234.31 182.045 233.975 181.934 233.528 181.934C233.064 181.934 232.697 182.037 232.43 182.243C232.165 182.446 231.982 182.673 231.88 182.922L230.583 182.626C230.737 182.196 230.962 181.848 231.257 181.583C231.556 181.315 231.899 181.121 232.286 181.001C232.674 180.878 233.082 180.817 233.51 180.817C233.793 180.817 234.093 180.851 234.41 180.918C234.73 180.983 235.029 181.103 235.306 181.278C235.586 181.454 235.815 181.705 235.994 182.031C236.172 182.354 236.261 182.774 236.261 183.291V188H234.913V187.031H234.858C234.769 187.209 234.635 187.384 234.456 187.557C234.278 187.729 234.048 187.872 233.768 187.986C233.488 188.1 233.153 188.157 232.762 188.157ZM233.062 187.049C233.444 187.049 233.77 186.974 234.041 186.823C234.315 186.672 234.522 186.475 234.664 186.232C234.809 185.986 234.881 185.723 234.881 185.442V184.528C234.832 184.578 234.736 184.624 234.595 184.667C234.456 184.707 234.298 184.742 234.119 184.773C233.941 184.801 233.767 184.827 233.598 184.852C233.428 184.873 233.287 184.892 233.173 184.907C232.905 184.941 232.66 184.998 232.439 185.078C232.22 185.158 232.045 185.273 231.913 185.424C231.783 185.572 231.719 185.769 231.719 186.015C231.719 186.357 231.845 186.615 232.097 186.79C232.35 186.963 232.671 187.049 233.062 187.049ZM238.718 190.659C238.512 190.659 238.324 190.642 238.155 190.608C237.986 190.578 237.86 190.544 237.777 190.507L238.109 189.376C238.361 189.443 238.586 189.473 238.783 189.463C238.98 189.454 239.154 189.38 239.305 189.242C239.459 189.103 239.594 188.877 239.711 188.563L239.882 188.092L237.287 180.909H238.765L240.56 186.412H240.634L242.43 180.909H243.912L240.99 188.946C240.854 189.316 240.682 189.628 240.473 189.884C240.263 190.142 240.014 190.336 239.725 190.465C239.435 190.594 239.1 190.659 238.718 190.659ZM250.523 182.64L249.272 182.862C249.219 182.702 249.136 182.549 249.022 182.405C248.912 182.26 248.761 182.142 248.57 182.049C248.379 181.957 248.141 181.911 247.854 181.911C247.464 181.911 247.137 181.999 246.876 182.174C246.614 182.346 246.483 182.569 246.483 182.843C246.483 183.08 246.571 183.271 246.746 183.416C246.922 183.56 247.205 183.679 247.596 183.771L248.722 184.03C249.375 184.181 249.861 184.413 250.181 184.727C250.501 185.041 250.661 185.449 250.661 185.95C250.661 186.375 250.538 186.754 250.292 187.086C250.049 187.415 249.709 187.674 249.272 187.862C248.838 188.049 248.335 188.143 247.762 188.143C246.968 188.143 246.32 187.974 245.819 187.635C245.317 187.294 245.009 186.809 244.895 186.181L246.229 185.978C246.313 186.326 246.483 186.589 246.742 186.767C247 186.943 247.337 187.031 247.753 187.031C248.205 187.031 248.567 186.937 248.838 186.749C249.109 186.558 249.244 186.326 249.244 186.052C249.244 185.83 249.161 185.644 248.995 185.493C248.832 185.342 248.581 185.229 248.242 185.152L247.042 184.888C246.38 184.738 245.891 184.498 245.574 184.168C245.26 183.839 245.103 183.422 245.103 182.917C245.103 182.499 245.22 182.132 245.454 181.819C245.688 181.505 246.011 181.26 246.423 181.085C246.836 180.906 247.308 180.817 247.841 180.817C248.607 180.817 249.21 180.983 249.65 181.315C250.09 181.645 250.381 182.086 250.523 182.64ZM257.683 188.157C257.234 188.157 256.827 188.074 256.464 187.908C256.101 187.738 255.813 187.494 255.601 187.174C255.392 186.854 255.287 186.461 255.287 185.996C255.287 185.596 255.364 185.267 255.518 185.009C255.672 184.75 255.879 184.545 256.141 184.395C256.403 184.244 256.695 184.13 257.018 184.053C257.341 183.976 257.671 183.917 258.006 183.877C258.431 183.828 258.775 183.788 259.04 183.757C259.305 183.724 259.497 183.67 259.617 183.596C259.737 183.522 259.797 183.402 259.797 183.236V183.203C259.797 182.8 259.683 182.488 259.456 182.266C259.231 182.045 258.895 181.934 258.449 181.934C257.984 181.934 257.618 182.037 257.35 182.243C257.086 182.446 256.903 182.673 256.801 182.922L255.504 182.626C255.658 182.196 255.882 181.848 256.178 181.583C256.476 181.315 256.82 181.121 257.207 181.001C257.595 180.878 258.003 180.817 258.431 180.817C258.714 180.817 259.014 180.851 259.331 180.918C259.651 180.983 259.95 181.103 260.227 181.278C260.507 181.454 260.736 181.705 260.914 182.031C261.093 182.354 261.182 182.774 261.182 183.291V188H259.834V187.031H259.779C259.69 187.209 259.556 187.384 259.377 187.557C259.199 187.729 258.969 187.872 258.689 187.986C258.409 188.1 258.074 188.157 257.683 188.157ZM257.983 187.049C258.365 187.049 258.691 186.974 258.962 186.823C259.236 186.672 259.443 186.475 259.585 186.232C259.73 185.986 259.802 185.723 259.802 185.442V184.528C259.753 184.578 259.657 184.624 259.516 184.667C259.377 184.707 259.219 184.742 259.04 184.773C258.862 184.801 258.688 184.827 258.518 184.852C258.349 184.873 258.208 184.892 258.094 184.907C257.826 184.941 257.581 184.998 257.36 185.078C257.141 185.158 256.966 185.273 256.833 185.424C256.704 185.572 256.64 185.769 256.64 186.015C256.64 186.357 256.766 186.615 257.018 186.79C257.27 186.963 257.592 187.049 257.983 187.049ZM266.331 180.909V182.017H262.457V180.909H266.331ZM263.496 179.21H264.877V185.918C264.877 186.186 264.917 186.387 264.997 186.523C265.077 186.655 265.18 186.746 265.306 186.795C265.435 186.841 265.575 186.864 265.726 186.864C265.837 186.864 265.934 186.857 266.017 186.841C266.1 186.826 266.165 186.814 266.211 186.804L266.46 187.945C266.38 187.975 266.266 188.006 266.118 188.037C265.971 188.071 265.786 188.089 265.564 188.092C265.201 188.098 264.863 188.034 264.549 187.898C264.235 187.763 263.981 187.554 263.787 187.271C263.593 186.987 263.496 186.632 263.496 186.204V179.21ZM274.867 178.545V188H273.435V179.977H273.38L271.118 181.454V180.087L273.477 178.545H274.867ZM277.424 188V186.966L280.623 183.651C280.965 183.291 281.247 182.976 281.468 182.705C281.693 182.431 281.861 182.171 281.971 181.925C282.082 181.679 282.138 181.417 282.138 181.14C282.138 180.826 282.064 180.555 281.916 180.327C281.768 180.097 281.567 179.92 281.311 179.797C281.056 179.67 280.768 179.607 280.448 179.607C280.109 179.607 279.814 179.676 279.562 179.815C279.309 179.953 279.115 180.149 278.98 180.401C278.844 180.654 278.777 180.949 278.777 181.288H277.415C277.415 180.712 277.547 180.209 277.812 179.778C278.077 179.347 278.44 179.013 278.901 178.776C279.363 178.536 279.888 178.416 280.476 178.416C281.07 178.416 281.593 178.535 282.045 178.772C282.501 179.006 282.856 179.326 283.112 179.732C283.367 180.135 283.495 180.591 283.495 181.098C283.495 181.449 283.429 181.792 283.296 182.128C283.167 182.463 282.941 182.837 282.618 183.25C282.294 183.659 281.845 184.156 281.27 184.741L279.391 186.707V186.777H283.647V188H277.424ZM285.415 190.659V180.909H286.763V182.059H286.879C286.959 181.911 287.074 181.74 287.225 181.546C287.376 181.352 287.585 181.183 287.853 181.038C288.12 180.891 288.474 180.817 288.915 180.817C289.487 180.817 289.998 180.961 290.447 181.251C290.897 181.54 291.249 181.957 291.504 182.502C291.763 183.047 291.892 183.702 291.892 184.468C291.892 185.235 291.764 185.892 291.509 186.44C291.254 186.984 290.903 187.404 290.456 187.7C290.01 187.992 289.501 188.138 288.928 188.138C288.497 188.138 288.145 188.066 287.871 187.922C287.6 187.777 287.388 187.608 287.234 187.414C287.08 187.22 286.962 187.047 286.879 186.897H286.796V190.659H285.415ZM286.768 184.455C286.768 184.953 286.84 185.39 286.985 185.766C287.129 186.141 287.339 186.435 287.613 186.647C287.887 186.857 288.222 186.961 288.619 186.961C289.031 186.961 289.376 186.852 289.653 186.634C289.93 186.412 290.139 186.112 290.281 185.733C290.426 185.355 290.498 184.929 290.498 184.455C290.498 183.987 290.427 183.567 290.286 183.194C290.147 182.822 289.938 182.528 289.658 182.312C289.381 182.097 289.035 181.989 288.619 181.989C288.219 181.989 287.88 182.092 287.603 182.299C287.33 182.505 287.122 182.793 286.98 183.162C286.839 183.531 286.768 183.962 286.768 184.455ZM293.439 188V180.909H294.764V182.063H294.851C294.999 181.672 295.241 181.368 295.576 181.149C295.912 180.928 296.313 180.817 296.781 180.817C297.255 180.817 297.652 180.928 297.972 181.149C298.295 181.371 298.534 181.675 298.688 182.063H298.761C298.931 181.685 299.2 181.383 299.569 181.158C299.939 180.931 300.379 180.817 300.89 180.817C301.533 180.817 302.058 181.018 302.464 181.422C302.873 181.825 303.078 182.433 303.078 183.245V188H301.698V183.374C301.698 182.894 301.567 182.546 301.305 182.331C301.044 182.116 300.731 182.008 300.368 182.008C299.919 182.008 299.569 182.146 299.32 182.423C299.071 182.697 298.946 183.05 298.946 183.48V188H297.57V183.287C297.57 182.902 297.45 182.593 297.21 182.359C296.97 182.125 296.658 182.008 296.273 182.008C296.012 182.008 295.77 182.077 295.548 182.216C295.33 182.351 295.153 182.54 295.017 182.783C294.885 183.027 294.819 183.308 294.819 183.628V188H293.439Z" fill="#333333"/>
<path d="M252.035 208.545H253.466V214.764C253.466 215.426 253.31 216.012 252.999 216.523C252.689 217.031 252.252 217.431 251.688 217.723C251.125 218.012 250.465 218.157 249.708 218.157C248.954 218.157 248.295 218.012 247.732 217.723C247.169 217.431 246.732 217.031 246.421 216.523C246.11 216.012 245.955 215.426 245.955 214.764V208.545H247.381V214.648C247.381 215.076 247.475 215.456 247.663 215.789C247.854 216.121 248.123 216.383 248.471 216.574C248.818 216.761 249.231 216.855 249.708 216.855C250.188 216.855 250.602 216.761 250.95 216.574C251.301 216.383 251.568 216.121 251.753 215.789C251.941 215.456 252.035 215.076 252.035 214.648V208.545ZM256.809 213.79V218H255.429V210.909H256.754V212.063H256.842C257.005 211.688 257.26 211.386 257.608 211.158C257.959 210.931 258.4 210.817 258.933 210.817C259.416 210.817 259.839 210.918 260.202 211.121C260.565 211.321 260.847 211.62 261.047 212.017C261.247 212.414 261.347 212.905 261.347 213.49V218H259.967V213.656C259.967 213.142 259.833 212.74 259.565 212.451C259.297 212.159 258.93 212.012 258.462 212.012C258.142 212.012 257.857 212.082 257.608 212.22C257.362 212.359 257.166 212.562 257.022 212.83C256.88 213.094 256.809 213.414 256.809 213.79ZM264.579 208.545V218H263.198V208.545H264.579ZM266.436 218V210.909H267.816V218H266.436ZM267.133 209.815C266.893 209.815 266.687 209.735 266.514 209.575C266.345 209.412 266.26 209.218 266.26 208.993C266.26 208.766 266.345 208.572 266.514 208.412C266.687 208.248 266.893 208.167 267.133 208.167C267.373 208.167 267.578 208.248 267.747 208.412C267.919 208.572 268.005 208.766 268.005 208.993C268.005 209.218 267.919 209.412 267.747 209.575C267.578 209.735 267.373 209.815 267.133 209.815ZM269.673 218V210.909H270.998V212.063H271.086C271.233 211.672 271.475 211.368 271.81 211.149C272.146 210.928 272.548 210.817 273.015 210.817C273.489 210.817 273.886 210.928 274.206 211.149C274.53 211.371 274.768 211.675 274.922 212.063H274.996C275.165 211.685 275.434 211.383 275.804 211.158C276.173 210.931 276.613 210.817 277.124 210.817C277.767 210.817 278.292 211.018 278.698 211.422C279.108 211.825 279.312 212.433 279.312 213.245V218H277.932V213.374C277.932 212.894 277.801 212.546 277.54 212.331C277.278 212.116 276.966 212.008 276.602 212.008C276.153 212.008 275.804 212.146 275.554 212.423C275.305 212.697 275.18 213.05 275.18 213.48V218H273.805V213.287C273.805 212.902 273.685 212.593 273.445 212.359C273.205 212.125 272.892 212.008 272.508 212.008C272.246 212.008 272.004 212.077 271.783 212.216C271.564 212.351 271.387 212.54 271.252 212.783C271.12 213.027 271.053 213.308 271.053 213.628V218H269.673ZM281.162 218V210.909H282.543V218H281.162ZM281.859 209.815C281.619 209.815 281.413 209.735 281.241 209.575C281.071 209.412 280.987 209.218 280.987 208.993C280.987 208.766 281.071 208.572 281.241 208.412C281.413 208.248 281.619 208.167 281.859 208.167C282.099 208.167 282.304 208.248 282.473 208.412C282.646 208.572 282.732 208.766 282.732 208.993C282.732 209.218 282.646 209.412 282.473 209.575C282.304 209.735 282.099 209.815 281.859 209.815ZM287.71 210.909V212.017H283.836V210.909H287.71ZM284.875 209.21H286.255V215.918C286.255 216.186 286.295 216.387 286.375 216.523C286.455 216.655 286.559 216.746 286.685 216.795C286.814 216.841 286.954 216.864 287.105 216.864C287.216 216.864 287.313 216.857 287.396 216.841C287.479 216.826 287.543 216.814 287.59 216.804L287.839 217.945C287.759 217.975 287.645 218.006 287.497 218.037C287.35 218.071 287.165 218.089 286.943 218.092C286.58 218.098 286.242 218.034 285.928 217.898C285.614 217.763 285.36 217.554 285.166 217.271C284.972 216.987 284.875 216.632 284.875 216.204V209.21ZM292.216 218.143C291.518 218.143 290.916 217.994 290.411 217.695C289.91 217.394 289.522 216.971 289.248 216.426C288.977 215.878 288.842 215.236 288.842 214.501C288.842 213.774 288.977 213.134 289.248 212.58C289.522 212.026 289.904 211.594 290.393 211.283C290.885 210.972 291.461 210.817 292.119 210.817C292.52 210.817 292.907 210.883 293.283 211.015C293.658 211.148 293.995 211.355 294.294 211.638C294.592 211.922 294.828 212.289 295 212.742C295.173 213.191 295.259 213.737 295.259 214.381V214.87H289.622V213.836H293.906C293.906 213.473 293.832 213.151 293.684 212.871C293.537 212.588 293.329 212.365 293.061 212.202C292.797 212.039 292.486 211.957 292.129 211.957C291.741 211.957 291.402 212.052 291.113 212.243C290.827 212.431 290.605 212.677 290.448 212.982C290.294 213.283 290.218 213.611 290.218 213.965V214.773C290.218 215.247 290.301 215.65 290.467 215.983C290.636 216.315 290.872 216.569 291.173 216.744C291.475 216.917 291.827 217.003 292.23 217.003C292.492 217.003 292.73 216.966 292.946 216.892C293.161 216.815 293.347 216.701 293.504 216.55C293.661 216.4 293.781 216.213 293.865 215.992L295.171 216.227C295.066 216.612 294.879 216.949 294.608 217.238C294.34 217.525 294.003 217.748 293.597 217.908C293.194 218.065 292.733 218.143 292.216 218.143ZM299.445 218.138C298.872 218.138 298.361 217.992 297.912 217.7C297.466 217.404 297.115 216.984 296.859 216.44C296.607 215.892 296.481 215.235 296.481 214.468C296.481 213.702 296.609 213.047 296.864 212.502C297.123 211.957 297.477 211.54 297.926 211.251C298.375 210.961 298.885 210.817 299.454 210.817C299.894 210.817 300.248 210.891 300.516 211.038C300.787 211.183 300.996 211.352 301.144 211.546C301.294 211.74 301.411 211.911 301.494 212.059H301.578V208.545H302.958V218H301.61V216.897H301.494C301.411 217.047 301.291 217.22 301.134 217.414C300.98 217.608 300.768 217.777 300.497 217.922C300.226 218.066 299.876 218.138 299.445 218.138ZM299.749 216.961C300.146 216.961 300.482 216.857 300.756 216.647C301.033 216.435 301.242 216.141 301.384 215.766C301.528 215.39 301.601 214.953 301.601 214.455C301.601 213.962 301.53 213.531 301.388 213.162C301.247 212.793 301.039 212.505 300.765 212.299C300.491 212.092 300.153 211.989 299.749 211.989C299.334 211.989 298.988 212.097 298.711 212.312C298.434 212.528 298.224 212.822 298.083 213.194C297.944 213.567 297.875 213.987 297.875 214.455C297.875 214.929 297.946 215.355 298.087 215.733C298.229 216.112 298.438 216.412 298.715 216.634C298.995 216.852 299.34 216.961 299.749 216.961Z" fill="#333333"/>
<line x1="32" y1="152.75" x2="304" y2="152.75" stroke="#9DD0C4" stroke-width="0.5"/>
<path d="M91.7211 126.132C91.1074 126.132 90.5719 125.991 90.1145 125.71C89.6571 125.429 89.302 125.036 89.0492 124.53C88.7963 124.024 88.6699 123.433 88.6699 122.757C88.6699 122.078 88.7963 121.484 89.0492 120.976C89.302 120.467 89.6571 120.072 90.1145 119.791C90.5719 119.51 91.1074 119.369 91.7211 119.369C92.3347 119.369 92.8702 119.51 93.3276 119.791C93.785 120.072 94.1401 120.467 94.3929 120.976C94.6458 121.484 94.7722 122.078 94.7722 122.757C94.7722 123.433 94.6458 124.024 94.3929 124.53C94.1401 125.036 93.785 125.429 93.3276 125.71C92.8702 125.991 92.3347 126.132 91.7211 126.132ZM91.7253 125.062C92.123 125.062 92.4526 124.957 92.714 124.747C92.9753 124.537 93.1685 124.257 93.2935 123.908C93.4213 123.558 93.4853 123.173 93.4853 122.753C93.4853 122.335 93.4213 121.952 93.2935 121.602C93.1685 121.25 92.9753 120.967 92.714 120.754C92.4526 120.541 92.123 120.435 91.7253 120.435C91.3248 120.435 90.9924 120.541 90.7282 120.754C90.4668 120.967 90.2722 121.25 90.1444 121.602C90.0194 121.952 89.9569 122.335 89.9569 122.753C89.9569 123.173 90.0194 123.558 90.1444 123.908C90.2722 124.257 90.4668 124.537 90.7282 124.747C90.9924 124.957 91.3248 125.062 91.7253 125.062ZM99.3095 119.455V120.477H95.6106V119.455H99.3095ZM96.6248 126V118.696C96.6248 118.287 96.7143 117.947 96.8933 117.678C97.0723 117.405 97.3095 117.202 97.6049 117.068C97.9004 116.932 98.2214 116.864 98.568 116.864C98.8237 116.864 99.0424 116.885 99.2243 116.928C99.4061 116.967 99.541 117.004 99.6291 117.038L99.3308 118.07C99.2711 118.053 99.1944 118.033 99.1007 118.01C99.0069 117.984 98.8933 117.972 98.7598 117.972C98.4501 117.972 98.2285 118.048 98.095 118.202C97.9643 118.355 97.899 118.577 97.899 118.866V126H96.6248ZM105.705 126.145C105.29 126.145 104.915 126.068 104.58 125.915C104.244 125.759 103.979 125.533 103.783 125.237C103.59 124.942 103.493 124.58 103.493 124.151C103.493 123.781 103.564 123.477 103.706 123.239C103.848 123 104.04 122.811 104.281 122.672C104.523 122.533 104.793 122.428 105.091 122.357C105.389 122.286 105.693 122.232 106.003 122.195C106.395 122.149 106.713 122.112 106.958 122.084C107.202 122.053 107.379 122.003 107.49 121.935C107.601 121.866 107.656 121.756 107.656 121.602V121.572C107.656 121.2 107.551 120.912 107.341 120.707C107.134 120.503 106.824 120.401 106.412 120.401C105.983 120.401 105.645 120.496 105.398 120.686C105.154 120.874 104.985 121.082 104.891 121.312L103.693 121.04C103.835 120.642 104.043 120.321 104.316 120.077C104.591 119.83 104.908 119.651 105.266 119.54C105.624 119.426 106 119.369 106.395 119.369C106.656 119.369 106.933 119.401 107.226 119.463C107.521 119.523 107.797 119.634 108.053 119.795C108.311 119.957 108.523 120.189 108.688 120.49C108.852 120.788 108.935 121.176 108.935 121.653V126H107.691V125.105H107.639C107.557 125.27 107.433 125.432 107.269 125.591C107.104 125.75 106.892 125.882 106.634 125.987C106.375 126.092 106.066 126.145 105.705 126.145ZM105.982 125.122C106.334 125.122 106.635 125.053 106.885 124.913C107.138 124.774 107.33 124.592 107.46 124.368C107.594 124.141 107.661 123.898 107.661 123.639V122.795C107.615 122.841 107.527 122.884 107.396 122.923C107.269 122.96 107.122 122.993 106.958 123.021C106.793 123.047 106.632 123.071 106.476 123.094C106.32 123.114 106.189 123.131 106.084 123.145C105.837 123.176 105.611 123.229 105.406 123.303C105.205 123.376 105.043 123.483 104.921 123.622C104.801 123.759 104.742 123.94 104.742 124.168C104.742 124.483 104.858 124.722 105.091 124.884C105.324 125.043 105.621 125.122 105.982 125.122ZM111.906 122.114V126H110.632V119.455H111.855V120.52H111.936C112.086 120.173 112.322 119.895 112.643 119.685C112.967 119.474 113.375 119.369 113.866 119.369C114.312 119.369 114.703 119.463 115.038 119.651C115.373 119.835 115.633 120.111 115.818 120.477C116.003 120.844 116.095 121.297 116.095 121.837V126H114.821V121.99C114.821 121.516 114.697 121.145 114.45 120.878C114.203 120.608 113.863 120.473 113.432 120.473C113.136 120.473 112.873 120.537 112.643 120.665C112.416 120.793 112.236 120.98 112.102 121.227C111.971 121.472 111.906 121.767 111.906 122.114ZM118.375 128.455C118.184 128.455 118.011 128.439 117.855 128.408C117.699 128.379 117.582 128.348 117.506 128.314L117.812 127.27C118.045 127.332 118.253 127.359 118.434 127.351C118.616 127.342 118.777 127.274 118.916 127.146C119.058 127.018 119.183 126.81 119.291 126.52L119.449 126.085L117.054 119.455H118.417L120.075 124.534H120.143L121.801 119.455H123.169L120.471 126.874C120.346 127.214 120.187 127.503 119.994 127.739C119.801 127.977 119.571 128.156 119.304 128.276C119.037 128.395 118.727 128.455 118.375 128.455ZM129.992 126.128C129.464 126.128 128.992 125.993 128.578 125.723C128.166 125.45 127.842 125.062 127.606 124.56C127.373 124.054 127.257 123.447 127.257 122.74C127.257 122.033 127.374 121.428 127.61 120.925C127.849 120.422 128.176 120.037 128.59 119.77C129.005 119.503 129.475 119.369 130.001 119.369C130.407 119.369 130.734 119.438 130.981 119.574C131.231 119.707 131.424 119.864 131.561 120.043C131.7 120.222 131.808 120.379 131.884 120.516H131.961V117.273H133.235V126H131.991V124.982H131.884C131.808 125.121 131.697 125.28 131.552 125.459C131.41 125.638 131.214 125.794 130.964 125.928C130.714 126.061 130.39 126.128 129.992 126.128ZM130.274 125.041C130.64 125.041 130.95 124.945 131.203 124.751C131.458 124.555 131.651 124.284 131.782 123.938C131.916 123.591 131.982 123.187 131.982 122.727C131.982 122.273 131.917 121.875 131.786 121.534C131.656 121.193 131.464 120.928 131.211 120.737C130.958 120.547 130.646 120.452 130.274 120.452C129.89 120.452 129.57 120.551 129.315 120.75C129.059 120.949 128.866 121.22 128.735 121.564C128.607 121.908 128.544 122.295 128.544 122.727C128.544 123.165 128.609 123.558 128.74 123.908C128.87 124.257 129.063 124.534 129.319 124.739C129.578 124.94 129.896 125.041 130.274 125.041ZM137.811 126.132C137.197 126.132 136.662 125.991 136.204 125.71C135.747 125.429 135.392 125.036 135.139 124.53C134.886 124.024 134.76 123.433 134.76 122.757C134.76 122.078 134.886 121.484 135.139 120.976C135.392 120.467 135.747 120.072 136.204 119.791C136.662 119.51 137.197 119.369 137.811 119.369C138.425 119.369 138.96 119.51 139.417 119.791C139.875 120.072 140.23 120.467 140.483 120.976C140.736 121.484 140.862 122.078 140.862 122.757C140.862 123.433 140.736 124.024 140.483 124.53C140.23 125.036 139.875 125.429 139.417 125.71C138.96 125.991 138.425 126.132 137.811 126.132ZM137.815 125.062C138.213 125.062 138.542 124.957 138.804 124.747C139.065 124.537 139.258 124.257 139.383 123.908C139.511 123.558 139.575 123.173 139.575 122.753C139.575 122.335 139.511 121.952 139.383 121.602C139.258 121.25 139.065 120.967 138.804 120.754C138.542 120.541 138.213 120.435 137.815 120.435C137.415 120.435 137.082 120.541 136.818 120.754C136.557 120.967 136.362 121.25 136.234 121.602C136.109 121.952 136.047 122.335 136.047 122.753C136.047 123.173 136.109 123.558 136.234 123.908C136.362 124.257 136.557 124.537 136.818 124.747C137.082 124.957 137.415 125.062 137.815 125.062ZM142.284 126V119.455H143.507V120.52H143.588C143.725 120.159 143.948 119.878 144.257 119.676C144.567 119.472 144.938 119.369 145.369 119.369C145.807 119.369 146.173 119.472 146.469 119.676C146.767 119.881 146.987 120.162 147.129 120.52H147.198C147.354 120.17 147.602 119.892 147.943 119.685C148.284 119.474 148.691 119.369 149.162 119.369C149.756 119.369 150.24 119.555 150.615 119.928C150.993 120.3 151.182 120.861 151.182 121.611V126H149.908V121.73C149.908 121.287 149.787 120.966 149.546 120.767C149.304 120.568 149.016 120.469 148.681 120.469C148.266 120.469 147.943 120.597 147.713 120.852C147.483 121.105 147.368 121.43 147.368 121.828V126H146.098V121.649C146.098 121.294 145.987 121.009 145.766 120.793C145.544 120.577 145.256 120.469 144.901 120.469C144.659 120.469 144.436 120.533 144.232 120.661C144.03 120.786 143.867 120.96 143.742 121.185C143.619 121.409 143.558 121.669 143.558 121.964V126H142.284ZM155.711 126.132C155.066 126.132 154.51 125.994 154.045 125.719C153.581 125.44 153.224 125.05 152.971 124.547C152.721 124.041 152.596 123.449 152.596 122.77C152.596 122.099 152.721 121.509 152.971 120.997C153.224 120.486 153.576 120.087 154.028 119.8C154.482 119.513 155.013 119.369 155.621 119.369C155.991 119.369 156.349 119.43 156.695 119.553C157.042 119.675 157.353 119.866 157.628 120.128C157.904 120.389 158.121 120.729 158.28 121.146C158.439 121.561 158.519 122.065 158.519 122.659V123.111H153.316V122.156H157.27C157.27 121.821 157.202 121.524 157.066 121.266C156.93 121.004 156.738 120.798 156.491 120.648C156.246 120.497 155.959 120.422 155.63 120.422C155.272 120.422 154.959 120.51 154.692 120.686C154.428 120.859 154.224 121.087 154.079 121.368C153.937 121.646 153.866 121.949 153.866 122.276V123.021C153.866 123.459 153.942 123.831 154.096 124.138C154.252 124.445 154.469 124.679 154.748 124.841C155.026 125 155.351 125.08 155.724 125.08C155.965 125.08 156.185 125.045 156.384 124.977C156.583 124.906 156.755 124.801 156.9 124.662C157.045 124.523 157.155 124.351 157.232 124.146L158.438 124.364C158.341 124.719 158.168 125.03 157.918 125.297C157.671 125.561 157.36 125.767 156.985 125.915C156.613 126.06 156.188 126.132 155.711 126.132ZM164.838 121.053L163.683 121.257C163.634 121.109 163.558 120.969 163.453 120.835C163.35 120.702 163.211 120.592 163.035 120.507C162.859 120.422 162.639 120.379 162.374 120.379C162.014 120.379 161.713 120.46 161.471 120.622C161.23 120.781 161.109 120.987 161.109 121.24C161.109 121.459 161.19 121.635 161.352 121.768C161.514 121.902 161.775 122.011 162.136 122.097L163.176 122.335C163.778 122.474 164.227 122.689 164.522 122.979C164.818 123.268 164.965 123.645 164.965 124.108C164.965 124.5 164.852 124.849 164.624 125.156C164.4 125.46 164.086 125.699 163.683 125.872C163.282 126.045 162.818 126.132 162.289 126.132C161.556 126.132 160.958 125.976 160.495 125.663C160.032 125.348 159.748 124.901 159.643 124.321L160.874 124.134C160.951 124.455 161.109 124.697 161.347 124.862C161.586 125.024 161.897 125.105 162.281 125.105C162.698 125.105 163.032 125.018 163.282 124.845C163.532 124.669 163.657 124.455 163.657 124.202C163.657 123.997 163.58 123.825 163.427 123.686C163.276 123.547 163.045 123.442 162.732 123.371L161.624 123.128C161.014 122.989 160.562 122.767 160.269 122.463C159.98 122.159 159.835 121.774 159.835 121.308C159.835 120.922 159.943 120.584 160.159 120.294C160.374 120.004 160.673 119.778 161.053 119.616C161.434 119.452 161.87 119.369 162.362 119.369C163.069 119.369 163.626 119.523 164.032 119.83C164.438 120.134 164.707 120.541 164.838 121.053ZM169.422 119.455V120.477H165.846V119.455H169.422ZM166.805 117.886H168.079V124.078C168.079 124.325 168.116 124.511 168.19 124.636C168.264 124.759 168.359 124.842 168.476 124.888C168.595 124.93 168.724 124.952 168.863 124.952C168.966 124.952 169.055 124.945 169.132 124.93C169.209 124.916 169.268 124.905 169.311 124.896L169.541 125.949C169.467 125.977 169.362 126.006 169.226 126.034C169.089 126.065 168.919 126.082 168.714 126.085C168.379 126.091 168.067 126.031 167.777 125.906C167.487 125.781 167.253 125.588 167.074 125.327C166.895 125.065 166.805 124.737 166.805 124.342V117.886ZM170.831 126V119.455H172.105V126H170.831ZM171.475 118.445C171.253 118.445 171.063 118.371 170.904 118.223C170.747 118.072 170.669 117.893 170.669 117.686C170.669 117.476 170.747 117.297 170.904 117.149C171.063 116.999 171.253 116.923 171.475 116.923C171.696 116.923 171.885 116.999 172.041 117.149C172.2 117.297 172.28 117.476 172.28 117.686C172.28 117.893 172.2 118.072 172.041 118.223C171.885 118.371 171.696 118.445 171.475 118.445ZM176.577 126.132C175.943 126.132 175.398 125.989 174.94 125.702C174.486 125.412 174.136 125.013 173.892 124.504C173.648 123.996 173.525 123.413 173.525 122.757C173.525 122.092 173.65 121.506 173.9 120.997C174.15 120.486 174.503 120.087 174.957 119.8C175.412 119.513 175.947 119.369 176.564 119.369C177.061 119.369 177.504 119.462 177.893 119.646C178.282 119.828 178.596 120.084 178.835 120.413C179.077 120.743 179.22 121.128 179.265 121.568H178.025C177.957 121.261 177.801 120.997 177.557 120.776C177.315 120.554 176.991 120.443 176.585 120.443C176.23 120.443 175.919 120.537 175.652 120.724C175.388 120.909 175.182 121.173 175.034 121.517C174.886 121.858 174.812 122.261 174.812 122.727C174.812 123.205 174.885 123.616 175.03 123.963C175.175 124.31 175.379 124.578 175.643 124.768C175.91 124.959 176.224 125.054 176.585 125.054C176.827 125.054 177.045 125.01 177.241 124.922C177.44 124.831 177.606 124.702 177.74 124.534C177.876 124.366 177.971 124.165 178.025 123.929H179.265C179.22 124.352 179.082 124.73 178.852 125.062C178.622 125.395 178.314 125.656 177.927 125.847C177.544 126.037 177.094 126.132 176.577 126.132ZM186.859 119.455V120.477H183.284V119.455H186.859ZM184.243 117.886H185.517V124.078C185.517 124.325 185.554 124.511 185.628 124.636C185.702 124.759 185.797 124.842 185.913 124.888C186.032 124.93 186.162 124.952 186.301 124.952C186.403 124.952 186.493 124.945 186.569 124.93C186.646 124.916 186.706 124.905 186.748 124.896L186.979 125.949C186.905 125.977 186.8 126.006 186.663 126.034C186.527 126.065 186.356 126.082 186.152 126.085C185.817 126.091 185.504 126.031 185.214 125.906C184.925 125.781 184.69 125.588 184.511 125.327C184.332 125.065 184.243 124.737 184.243 124.342V117.886ZM188.269 126V119.455H189.5V120.494H189.568C189.688 120.142 189.898 119.865 190.199 119.663C190.503 119.459 190.847 119.357 191.23 119.357C191.31 119.357 191.404 119.359 191.512 119.365C191.622 119.371 191.709 119.378 191.771 119.386V120.605C191.72 120.591 191.629 120.575 191.499 120.558C191.368 120.538 191.237 120.528 191.107 120.528C190.806 120.528 190.537 120.592 190.301 120.72C190.068 120.845 189.884 121.02 189.747 121.244C189.611 121.466 189.543 121.719 189.543 122.003V126H188.269ZM194.72 126.145C194.306 126.145 193.931 126.068 193.595 125.915C193.26 125.759 192.994 125.533 192.798 125.237C192.605 124.942 192.509 124.58 192.509 124.151C192.509 123.781 192.58 123.477 192.722 123.239C192.864 123 193.056 122.811 193.297 122.672C193.539 122.533 193.808 122.428 194.107 122.357C194.405 122.286 194.709 122.232 195.019 122.195C195.411 122.149 195.729 122.112 195.973 122.084C196.218 122.053 196.395 122.003 196.506 121.935C196.617 121.866 196.672 121.756 196.672 121.602V121.572C196.672 121.2 196.567 120.912 196.357 120.707C196.149 120.503 195.84 120.401 195.428 120.401C194.999 120.401 194.661 120.496 194.414 120.686C194.169 120.874 194 121.082 193.906 121.312L192.709 121.04C192.851 120.642 193.058 120.321 193.331 120.077C193.607 119.83 193.923 119.651 194.281 119.54C194.639 119.426 195.016 119.369 195.411 119.369C195.672 119.369 195.949 119.401 196.242 119.463C196.537 119.523 196.813 119.634 197.068 119.795C197.327 119.957 197.539 120.189 197.703 120.49C197.868 120.788 197.95 121.176 197.95 121.653V126H196.706V125.105H196.655C196.573 125.27 196.449 125.432 196.284 125.591C196.119 125.75 195.908 125.882 195.649 125.987C195.391 126.092 195.081 126.145 194.72 126.145ZM194.997 125.122C195.35 125.122 195.651 125.053 195.901 124.913C196.154 124.774 196.345 124.592 196.476 124.368C196.61 124.141 196.676 123.898 196.676 123.639V122.795C196.631 122.841 196.543 122.884 196.412 122.923C196.284 122.96 196.138 122.993 195.973 123.021C195.808 123.047 195.648 123.071 195.492 123.094C195.335 123.114 195.205 123.131 195.1 123.145C194.852 123.176 194.627 123.229 194.422 123.303C194.22 123.376 194.058 123.483 193.936 123.622C193.817 123.759 193.757 123.94 193.757 124.168C193.757 124.483 193.874 124.722 194.107 124.884C194.34 125.043 194.637 125.122 194.997 125.122ZM200.922 122.114V126H199.648V119.455H200.871V120.52H200.952C201.102 120.173 201.338 119.895 201.659 119.685C201.983 119.474 202.39 119.369 202.882 119.369C203.328 119.369 203.719 119.463 204.054 119.651C204.389 119.835 204.649 120.111 204.834 120.477C205.018 120.844 205.111 121.297 205.111 121.837V126H203.836V121.99C203.836 121.516 203.713 121.145 203.466 120.878C203.219 120.608 202.879 120.473 202.447 120.473C202.152 120.473 201.889 120.537 201.659 120.665C201.432 120.793 201.251 120.98 201.118 121.227C200.987 121.472 200.922 121.767 200.922 122.114ZM211.724 121.053L210.569 121.257C210.521 121.109 210.444 120.969 210.339 120.835C210.237 120.702 210.098 120.592 209.922 120.507C209.746 120.422 209.525 120.379 209.261 120.379C208.9 120.379 208.599 120.46 208.358 120.622C208.116 120.781 207.996 120.987 207.996 121.24C207.996 121.459 208.077 121.635 208.238 121.768C208.4 121.902 208.662 122.011 209.023 122.097L210.062 122.335C210.665 122.474 211.113 122.689 211.409 122.979C211.704 123.268 211.852 123.645 211.852 124.108C211.852 124.5 211.738 124.849 211.511 125.156C211.287 125.46 210.973 125.699 210.569 125.872C210.169 126.045 209.704 126.132 209.176 126.132C208.443 126.132 207.845 125.976 207.382 125.663C206.919 125.348 206.635 124.901 206.53 124.321L207.761 124.134C207.838 124.455 207.996 124.697 208.234 124.862C208.473 125.024 208.784 125.105 209.167 125.105C209.585 125.105 209.919 125.018 210.169 124.845C210.419 124.669 210.544 124.455 210.544 124.202C210.544 123.997 210.467 123.825 210.314 123.686C210.163 123.547 209.932 123.442 209.619 123.371L208.511 123.128C207.9 122.989 207.449 122.767 207.156 122.463C206.866 122.159 206.721 121.774 206.721 121.308C206.721 120.922 206.829 120.584 207.045 120.294C207.261 120.004 207.559 119.778 207.94 119.616C208.321 119.452 208.757 119.369 209.248 119.369C209.956 119.369 210.513 119.523 210.919 119.83C211.325 120.134 211.594 120.541 211.724 121.053ZM215.158 126.145C214.743 126.145 214.368 126.068 214.033 125.915C213.698 125.759 213.432 125.533 213.236 125.237C213.043 124.942 212.946 124.58 212.946 124.151C212.946 123.781 213.017 123.477 213.159 123.239C213.301 123 213.493 122.811 213.735 122.672C213.976 122.533 214.246 122.428 214.544 122.357C214.843 122.286 215.146 122.232 215.456 122.195C215.848 122.149 216.166 122.112 216.411 122.084C216.655 122.053 216.833 122.003 216.943 121.935C217.054 121.866 217.11 121.756 217.11 121.602V121.572C217.11 121.2 217.004 120.912 216.794 120.707C216.587 120.503 216.277 120.401 215.865 120.401C215.436 120.401 215.098 120.496 214.851 120.686C214.607 120.874 214.438 121.082 214.344 121.312L213.146 121.04C213.289 120.642 213.496 120.321 213.769 120.077C214.044 119.83 214.361 119.651 214.719 119.54C215.077 119.426 215.453 119.369 215.848 119.369C216.11 119.369 216.387 119.401 216.679 119.463C216.975 119.523 217.25 119.634 217.506 119.795C217.764 119.957 217.976 120.189 218.141 120.49C218.306 120.788 218.388 121.176 218.388 121.653V126H217.144V125.105H217.093C217.01 125.27 216.887 125.432 216.722 125.591C216.557 125.75 216.345 125.882 216.087 125.987C215.828 126.092 215.519 126.145 215.158 126.145ZM215.435 125.122C215.787 125.122 216.088 125.053 216.338 124.913C216.591 124.774 216.783 124.592 216.914 124.368C217.047 124.141 217.114 123.898 217.114 123.639V122.795C217.068 122.841 216.98 122.884 216.85 122.923C216.722 122.96 216.575 122.993 216.411 123.021C216.246 123.047 216.085 123.071 215.929 123.094C215.773 123.114 215.642 123.131 215.537 123.145C215.29 123.176 215.064 123.229 214.86 123.303C214.658 123.376 214.496 123.483 214.374 123.622C214.254 123.759 214.195 123.94 214.195 124.168C214.195 124.483 214.311 124.722 214.544 124.884C214.777 125.043 215.074 125.122 215.435 125.122ZM222.842 126.132C222.209 126.132 221.663 125.989 221.206 125.702C220.751 125.412 220.402 125.013 220.157 124.504C219.913 123.996 219.791 123.413 219.791 122.757C219.791 122.092 219.916 121.506 220.166 120.997C220.416 120.486 220.768 120.087 221.223 119.8C221.677 119.513 222.213 119.369 222.829 119.369C223.327 119.369 223.77 119.462 224.159 119.646C224.548 119.828 224.862 120.084 225.101 120.413C225.342 120.743 225.486 121.128 225.531 121.568H224.291C224.223 121.261 224.067 120.997 223.822 120.776C223.581 120.554 223.257 120.443 222.851 120.443C222.496 120.443 222.184 120.537 221.917 120.724C221.653 120.909 221.447 121.173 221.3 121.517C221.152 121.858 221.078 122.261 221.078 122.727C221.078 123.205 221.15 123.616 221.295 123.963C221.44 124.31 221.645 124.578 221.909 124.768C222.176 124.959 222.49 125.054 222.851 125.054C223.092 125.054 223.311 125.01 223.507 124.922C223.706 124.831 223.872 124.702 224.006 124.534C224.142 124.366 224.237 124.165 224.291 123.929H225.531C225.486 124.352 225.348 124.73 225.118 125.062C224.888 125.395 224.579 125.656 224.193 125.847C223.809 126.037 223.359 126.132 222.842 126.132ZM229.949 119.455V120.477H226.374V119.455H229.949ZM227.333 117.886H228.607V124.078C228.607 124.325 228.644 124.511 228.718 124.636C228.791 124.759 228.887 124.842 229.003 124.888C229.122 124.93 229.252 124.952 229.391 124.952C229.493 124.952 229.583 124.945 229.659 124.93C229.736 124.916 229.796 124.905 229.838 124.896L230.068 125.949C229.994 125.977 229.889 126.006 229.753 126.034C229.617 126.065 229.446 126.082 229.242 126.085C228.906 126.091 228.594 126.031 228.304 125.906C228.014 125.781 227.78 125.588 227.601 125.327C227.422 125.065 227.333 124.737 227.333 124.342V117.886ZM231.358 126V119.455H232.633V126H231.358ZM232.002 118.445C231.78 118.445 231.59 118.371 231.431 118.223C231.275 118.072 231.197 117.893 231.197 117.686C231.197 117.476 231.275 117.297 231.431 117.149C231.59 116.999 231.78 116.923 232.002 116.923C232.224 116.923 232.412 116.999 232.569 117.149C232.728 117.297 232.807 117.476 232.807 117.686C232.807 117.893 232.728 118.072 232.569 118.223C232.412 118.371 232.224 118.445 232.002 118.445ZM237.104 126.132C236.49 126.132 235.955 125.991 235.497 125.71C235.04 125.429 234.685 125.036 234.432 124.53C234.179 124.024 234.053 123.433 234.053 122.757C234.053 122.078 234.179 121.484 234.432 120.976C234.685 120.467 235.04 120.072 235.497 119.791C235.955 119.51 236.49 119.369 237.104 119.369C237.718 119.369 238.253 119.51 238.71 119.791C239.168 120.072 239.523 120.467 239.776 120.976C240.029 121.484 240.155 122.078 240.155 122.757C240.155 123.433 240.029 124.024 239.776 124.53C239.523 125.036 239.168 125.429 238.71 125.71C238.253 125.991 237.718 126.132 237.104 126.132ZM237.108 125.062C237.506 125.062 237.835 124.957 238.097 124.747C238.358 124.537 238.551 124.257 238.676 123.908C238.804 123.558 238.868 123.173 238.868 122.753C238.868 122.335 238.804 121.952 238.676 121.602C238.551 121.25 238.358 120.967 238.097 120.754C237.835 120.541 237.506 120.435 237.108 120.435C236.708 120.435 236.375 120.541 236.111 120.754C235.85 120.967 235.655 121.25 235.527 121.602C235.402 121.952 235.34 122.335 235.34 122.753C235.34 123.173 235.402 123.558 235.527 123.908C235.655 124.257 235.85 124.537 236.111 124.747C236.375 124.957 236.708 125.062 237.108 125.062ZM242.851 122.114V126H241.577V119.455H242.8V120.52H242.881C243.032 120.173 243.268 119.895 243.589 119.685C243.912 119.474 244.32 119.369 244.812 119.369C245.258 119.369 245.648 119.463 245.983 119.651C246.319 119.835 246.579 120.111 246.763 120.477C246.948 120.844 247.04 121.297 247.04 121.837V126H245.766V121.99C245.766 121.516 245.643 121.145 245.395 120.878C245.148 120.608 244.809 120.473 244.377 120.473C244.081 120.473 243.819 120.537 243.589 120.665C243.361 120.793 243.181 120.98 243.047 121.227C242.917 121.472 242.851 121.767 242.851 122.114Z" fill="#18AF8B"/>
<defs>
<filter id="filter0_d_1_613" x="120" y="0" width="69" height="69" filterUnits="userSpaceOnUse" color-interpolation-filters="sRGB">
<feFlood flood-opacity="0" result="BackgroundImageFix"/>
<feColorMatrix in="SourceAlpha" type="matrix" values="0 0 0 0 0 0 0 0 0 0 0 0 0 0 0 0 0 0 127 0" result="hardAlpha"/>
<feOffset dx="1" dy="1"/>
<feGaussianBlur stdDeviation="1"/>
<feComposite in2="hardAlpha" operator="out"/>
<feColorMatrix type="matrix" values="0 0 0 0 0.231373 0 0 0 0 0.247059 0 0 0 0 0.27451 0 0 0 0.08 0"/>
<feBlend mode="normal" in2="BackgroundImageFix" result="effect1_dropShadow_1_613"/>
<feBlend mode="normal" in="SourceGraphic" in2="effect1_dropShadow_1_613" result="shape"/>
</filter>
<filter id="filter1_d_1_613" x="131" y="24" width="21.9988" height="22" filterUnits="userSpaceOnUse" color-interpolation-filters="sRGB">
<feFlood flood-opacity="0" result="BackgroundImageFix"/>
<feColorMatrix in="SourceAlpha" type="matrix" values="0 0 0 0 0 0 0 0 0 0 0 0 0 0 0 0 0 0 127 0" result="hardAlpha"/>
<feOffset dy="1"/>
<feGaussianBlur stdDeviation="0.5"/>
<feComposite in2="hardAlpha" operator="out"/>
<feColorMatrix type="matrix" values="0 0 0 0 0.231373 0 0 0 0 0.247059 0 0 0 0 0.27451 0 0 0 0.08 0"/>
<feBlend mode="normal" in2="BackgroundImageFix" result="effect1_dropShadow_1_613"/>
<feBlend mode="normal" in="SourceGraphic" in2="effect1_dropShadow_1_613" result="shape"/>
</filter>
<filter id="filter2_d_1_613" x="132" y="21" width="27.9988" height="28" filterUnits="userSpaceOnUse" color-interpolation-filters="sRGB">
<feFlood flood-opacity="0" result="BackgroundImageFix"/>
<feColorMatrix in="SourceAlpha" type="matrix" values="0 0 0 0 0 0 0 0 0 0 0 0 0 0 0 0 0 0 127 0" result="hardAlpha"/>
<feOffset dx="-1"/>
<feGaussianBlur stdDeviation="2"/>
<feComposite in2="hardAlpha" operator="out"/>
<feColorMatrix type="matrix" values="0 0 0 0 0.231373 0 0 0 0 0.247059 0 0 0 0 0.27451 0 0 0 0.18 0"/>
<feBlend mode="normal" in2="BackgroundImageFix" result="effect1_dropShadow_1_613"/>
<feBlend mode="normal" in="SourceGraphic" in2="effect1_dropShadow_1_613" result="shape"/>
</filter>
<linearGradient id="paint0_linear_1_613" x1="168" y1="30" x2="168" y2="248" gradientUnits="userSpaceOnUse">
<stop stop-color="#D9F2E5"/>
<stop offset="1" stop-color="#EEF8F2"/>
</linearGradient>
</defs>
</svg>
