<svg width="642" height="50" viewBox="0 0 642 50" fill="none" xmlns="http://www.w3.org/2000/svg">
<path opacity="0.38" d="M3.00002 25L392 25C392 25 394 13.4992 405.5 13.4992C417 13.4992 419 25 419 25L622 25" stroke="#F2994A" stroke-linecap="round"/>
<path d="M572.731 39.6719V38.7273H578.36V39.6719H576.091V46H574.997V39.6719H572.731ZM581.061 45.5384V40.7372H582.016V45.5384H581.061ZM579.139 43.6136V42.6584H583.941V43.6136H579.139ZM585.276 46V45.2045L587.737 42.6548C587.999 42.3778 588.216 42.1352 588.387 41.9268C588.559 41.7161 588.688 41.5161 588.774 41.3267C588.859 41.1373 588.901 40.9361 588.901 40.723C588.901 40.4815 588.845 40.2732 588.731 40.098C588.617 39.9205 588.462 39.7843 588.266 39.6896C588.069 39.5926 587.848 39.544 587.602 39.544C587.341 39.544 587.114 39.5973 586.92 39.7038C586.726 39.8104 586.577 39.9607 586.472 40.1548C586.368 40.349 586.316 40.5762 586.316 40.8366H585.269C585.269 40.3939 585.37 40.0069 585.574 39.6754C585.778 39.344 586.057 39.0871 586.412 38.9048C586.767 38.7202 587.171 38.6278 587.623 38.6278C588.08 38.6278 588.482 38.719 588.83 38.9013C589.181 39.0812 589.454 39.3274 589.651 39.6399C589.847 39.95 589.945 40.3004 589.945 40.6911C589.945 40.9609 589.895 41.2249 589.793 41.483C589.693 41.741 589.519 42.0286 589.271 42.3459C589.022 42.6607 588.677 43.0431 588.234 43.4929L586.789 45.0057V45.0589H590.063V46H585.276Z" fill="#1C1C1C"/>
<path d="M46.6835 40.6719V39.7273H52.3121V40.6719H50.0429V47H48.9491V40.6719H46.6835Z" fill="#1C1C1C"/>
<path d="M0.940092 1.21023V0.272727H7.48555V1.21023H4.74123V9H3.68441V1.21023H0.940092ZM8.36053 9V2.45455H9.33212V3.44318H9.4003C9.51962 3.11932 9.73553 2.85653 10.048 2.65483C10.3605 2.45312 10.7128 2.35227 11.1049 2.35227C11.1787 2.35227 11.271 2.35369 11.3818 2.35653C11.4926 2.35937 11.5764 2.36364 11.6333 2.36932V3.39205C11.5992 3.38352 11.521 3.37074 11.3989 3.35369C11.2796 3.33381 11.1531 3.32386 11.0196 3.32386C10.7014 3.32386 10.4174 3.39062 10.1674 3.52415C9.92019 3.65483 9.72417 3.83665 9.57928 4.0696C9.43724 4.29972 9.36621 4.5625 9.36621 4.85795V9H8.36053ZM14.8115 9.15341C14.3967 9.15341 14.0203 9.07528 13.6823 8.91903C13.3442 8.75994 13.0757 8.53125 12.8769 8.23295C12.678 7.93182 12.5786 7.56818 12.5786 7.14205C12.5786 6.76705 12.6524 6.46307 12.8001 6.23011C12.9479 5.99432 13.1453 5.80966 13.3925 5.67614C13.6396 5.54261 13.9124 5.44318 14.2107 5.37784C14.5118 5.30966 14.8144 5.25568 15.1183 5.21591C15.5161 5.16477 15.8385 5.12642 16.0857 5.10085C16.3357 5.07244 16.5175 5.02557 16.6311 4.96023C16.7476 4.89489 16.8058 4.78125 16.8058 4.61932V4.58523C16.8058 4.16477 16.6908 3.83807 16.4607 3.60511C16.2334 3.37216 15.8882 3.25568 15.4251 3.25568C14.945 3.25568 14.5686 3.3608 14.2959 3.57102C14.0232 3.78125 13.8314 4.00568 13.7206 4.24432L12.7661 3.90341C12.9365 3.50568 13.1638 3.19602 13.4479 2.97443C13.7348 2.75 14.0473 2.59375 14.3854 2.50568C14.7263 2.41477 15.0615 2.36932 15.3911 2.36932C15.6013 2.36932 15.8428 2.39489 16.1155 2.44602C16.3911 2.49432 16.6567 2.59517 16.9124 2.74858C17.1709 2.90199 17.3854 3.13352 17.5558 3.44318C17.7263 3.75284 17.8115 4.16761 17.8115 4.6875V9H16.8058V8.11364H16.7547C16.6865 8.25568 16.5729 8.40767 16.4138 8.5696C16.2547 8.73153 16.043 8.86932 15.7788 8.98295C15.5146 9.09659 15.1922 9.15341 14.8115 9.15341ZM14.9649 8.25C15.3626 8.25 15.6979 8.17188 15.9706 8.01562C16.2462 7.85938 16.4536 7.65767 16.5928 7.41051C16.7348 7.16335 16.8058 6.90341 16.8058 6.63068V5.71023C16.7632 5.76136 16.6695 5.80824 16.5246 5.85085C16.3825 5.89062 16.2178 5.92614 16.0303 5.95739C15.8456 5.9858 15.6652 6.01136 15.4891 6.03409C15.3158 6.05398 15.1751 6.07102 15.0672 6.08523C14.8058 6.11932 14.5615 6.17472 14.3342 6.25142C14.1098 6.32528 13.928 6.4375 13.7888 6.58807C13.6524 6.7358 13.5842 6.9375 13.5842 7.19318C13.5842 7.54261 13.7135 7.80682 13.972 7.9858C14.2334 8.16193 14.5644 8.25 14.9649 8.25ZM20.7128 5.0625V9H19.7071V2.45455H20.6787V3.47727H20.7639C20.9173 3.14489 21.1503 2.87784 21.4628 2.67614C21.7753 2.47159 22.1787 2.36932 22.673 2.36932C23.1162 2.36932 23.504 2.46023 23.8364 2.64205C24.1687 2.82102 24.4273 3.09375 24.6119 3.46023C24.7966 3.82386 24.8889 4.28409 24.8889 4.84091V9H23.8832V4.90909C23.8832 4.39489 23.7497 3.99432 23.4827 3.70739C23.2156 3.41761 22.8491 3.27273 22.3832 3.27273C22.0622 3.27273 21.7753 3.34233 21.5224 3.48153C21.2724 3.62074 21.075 3.82386 20.9301 4.09091C20.7852 4.35795 20.7128 4.68182 20.7128 5.0625ZM31.423 3.92045L30.5196 4.17614C30.4628 4.02557 30.379 3.87926 30.2682 3.73722C30.1602 3.59233 30.0125 3.47301 29.825 3.37926C29.6375 3.28551 29.3974 3.23864 29.1048 3.23864C28.7042 3.23864 28.3704 3.33097 28.1034 3.51562C27.8392 3.69744 27.7071 3.92898 27.7071 4.21023C27.7071 4.46023 27.798 4.65767 27.9798 4.80256C28.1616 4.94744 28.4457 5.06818 28.8321 5.16477L29.8037 5.40341C30.3889 5.54545 30.825 5.76278 31.1119 6.0554C31.3988 6.34517 31.5423 6.71875 31.5423 7.17614C31.5423 7.55114 31.4344 7.88636 31.2184 8.18182C31.0054 8.47727 30.7071 8.71023 30.3236 8.88068C29.94 9.05114 29.494 9.13636 28.9855 9.13636C28.3179 9.13636 27.7653 8.99148 27.3278 8.7017C26.8903 8.41193 26.6133 7.98864 26.4969 7.43182L27.4514 7.19318C27.5423 7.54545 27.7142 7.80966 27.967 7.9858C28.2227 8.16193 28.5565 8.25 28.9684 8.25C29.4372 8.25 29.8094 8.15057 30.0849 7.9517C30.3633 7.75 30.5025 7.50852 30.5025 7.22727C30.5025 7 30.423 6.80966 30.2639 6.65625C30.1048 6.5 29.8605 6.38352 29.5309 6.30682L28.44 6.05114C27.8406 5.90909 27.4003 5.68892 27.119 5.39062C26.8406 5.08949 26.7014 4.71307 26.7014 4.26136C26.7014 3.89205 26.8051 3.56534 27.0125 3.28125C27.2227 2.99716 27.5082 2.77415 27.869 2.61222C28.2326 2.45028 28.6446 2.36932 29.1048 2.36932C29.7525 2.36932 30.2611 2.51136 30.6304 2.79545C31.0025 3.07955 31.2667 3.45455 31.423 3.92045ZM35.0423 9.15341C34.6275 9.15341 34.2511 9.07528 33.913 8.91903C33.575 8.75994 33.3065 8.53125 33.1076 8.23295C32.9088 7.93182 32.8093 7.56818 32.8093 7.14205C32.8093 6.76705 32.8832 6.46307 33.0309 6.23011C33.1787 5.99432 33.3761 5.80966 33.6233 5.67614C33.8704 5.54261 34.1431 5.44318 34.4414 5.37784C34.7426 5.30966 35.0451 5.25568 35.3491 5.21591C35.7468 5.16477 36.0693 5.12642 36.3164 5.10085C36.5664 5.07244 36.7483 5.02557 36.8619 4.96023C36.9784 4.89489 37.0366 4.78125 37.0366 4.61932V4.58523C37.0366 4.16477 36.9216 3.83807 36.6914 3.60511C36.4642 3.37216 36.119 3.25568 35.6559 3.25568C35.1758 3.25568 34.7994 3.3608 34.5267 3.57102C34.2539 3.78125 34.0622 4.00568 33.9514 4.24432L32.9968 3.90341C33.1673 3.50568 33.3946 3.19602 33.6787 2.97443C33.9656 2.75 34.2781 2.59375 34.6162 2.50568C34.9571 2.41477 35.2923 2.36932 35.6218 2.36932C35.8321 2.36932 36.0735 2.39489 36.3463 2.44602C36.6218 2.49432 36.8875 2.59517 37.1431 2.74858C37.4017 2.90199 37.6162 3.13352 37.7866 3.44318C37.9571 3.75284 38.0423 4.16761 38.0423 4.6875V9H37.0366V8.11364H36.9855C36.9173 8.25568 36.8037 8.40767 36.6446 8.5696C36.4855 8.73153 36.2738 8.86932 36.0096 8.98295C35.7454 9.09659 35.423 9.15341 35.0423 9.15341ZM35.1957 8.25C35.5934 8.25 35.9287 8.17188 36.2014 8.01562C36.477 7.85938 36.6843 7.65767 36.8235 7.41051C36.9656 7.16335 37.0366 6.90341 37.0366 6.63068V5.71023C36.994 5.76136 36.9002 5.80824 36.7554 5.85085C36.6133 5.89062 36.4485 5.92614 36.261 5.95739C36.0764 5.9858 35.896 6.01136 35.7198 6.03409C35.5466 6.05398 35.4059 6.07102 35.298 6.08523C35.0366 6.11932 34.7923 6.17472 34.565 6.25142C34.3406 6.32528 34.1588 6.4375 34.0196 6.58807C33.8832 6.7358 33.815 6.9375 33.815 7.19318C33.815 7.54261 33.9443 7.80682 34.2028 7.9858C34.4642 8.16193 34.7951 8.25 35.1957 8.25ZM42.597 9.13636C41.9833 9.13636 41.4549 8.99148 41.0117 8.7017C40.5686 8.41193 40.2276 8.01278 39.989 7.50426C39.7504 6.99574 39.6311 6.41477 39.6311 5.76136C39.6311 5.09659 39.7532 4.50994 39.9975 4.00142C40.2447 3.49006 40.5884 3.09091 41.0288 2.80398C41.472 2.5142 41.989 2.36932 42.5799 2.36932C43.0401 2.36932 43.4549 2.45455 43.8242 2.625C44.1936 2.79545 44.4961 3.03409 44.7319 3.34091C44.9677 3.64773 45.114 4.00568 45.1708 4.41477H44.1651C44.0884 4.11648 43.918 3.85227 43.6538 3.62216C43.3924 3.3892 43.0401 3.27273 42.597 3.27273C42.2049 3.27273 41.8612 3.375 41.5657 3.57955C41.2731 3.78125 41.0444 4.06676 40.8796 4.43608C40.7177 4.80256 40.6367 5.23295 40.6367 5.72727C40.6367 6.23295 40.7163 6.6733 40.8754 7.0483C41.0373 7.4233 41.2646 7.71449 41.5572 7.92188C41.8526 8.12926 42.1992 8.23295 42.597 8.23295C42.8583 8.23295 43.0955 8.1875 43.3086 8.09659C43.5217 8.00568 43.7021 7.875 43.8498 7.70455C43.9975 7.53409 44.1026 7.32955 44.1651 7.09091H45.1708C45.114 7.47727 44.9734 7.82528 44.749 8.13494C44.5274 8.44176 44.2333 8.68608 43.8669 8.8679C43.5032 9.04688 43.0799 9.13636 42.597 9.13636ZM49.5476 2.45455V3.30682H46.1555V2.45455H49.5476ZM47.1442 0.886364H48.1499V7.125C48.1499 7.40909 48.1911 7.62216 48.2734 7.7642C48.3587 7.90341 48.4666 7.99716 48.5973 8.04545C48.7308 8.09091 48.8715 8.11364 49.0192 8.11364C49.13 8.11364 49.2209 8.10795 49.2919 8.09659C49.3629 8.08239 49.4197 8.07102 49.4624 8.0625L49.6669 8.96591C49.5987 8.99148 49.5036 9.01705 49.3814 9.04261C49.2592 9.07102 49.1044 9.08523 48.9169 9.08523C48.6328 9.08523 48.3544 9.02415 48.0817 8.90199C47.8118 8.77983 47.5874 8.59375 47.4084 8.34375C47.2322 8.09375 47.1442 7.77841 47.1442 7.39773V0.886364ZM51.1204 9V2.45455H52.1261V9H51.1204ZM51.6317 1.36364C51.4357 1.36364 51.2667 1.29688 51.1246 1.16335C50.9854 1.02983 50.9158 0.869318 50.9158 0.681818C50.9158 0.494318 50.9854 0.333807 51.1246 0.200284C51.2667 0.0667613 51.4357 0 51.6317 0C51.8278 0 51.9954 0.0667613 52.1346 0.200284C52.2766 0.333807 52.3476 0.494318 52.3476 0.681818C52.3476 0.869318 52.2766 1.02983 52.1346 1.16335C51.9954 1.29688 51.8278 1.36364 51.6317 1.36364ZM56.6871 9.13636C56.0962 9.13636 55.5777 8.99574 55.1317 8.71449C54.6885 8.43324 54.342 8.03977 54.092 7.53409C53.8448 7.02841 53.7212 6.4375 53.7212 5.76136C53.7212 5.07955 53.8448 4.48437 54.092 3.97585C54.342 3.46733 54.6885 3.07244 55.1317 2.79119C55.5777 2.50994 56.0962 2.36932 56.6871 2.36932C57.278 2.36932 57.7951 2.50994 58.2383 2.79119C58.6843 3.07244 59.0309 3.46733 59.278 3.97585C59.528 4.48437 59.653 5.07955 59.653 5.76136C59.653 6.4375 59.528 7.02841 59.278 7.53409C59.0309 8.03977 58.6843 8.43324 58.2383 8.71449C57.7951 8.99574 57.278 9.13636 56.6871 9.13636ZM56.6871 8.23295C57.136 8.23295 57.5053 8.1179 57.7951 7.88778C58.0849 7.65767 58.2993 7.35511 58.4385 6.98011C58.5777 6.60511 58.6474 6.19886 58.6474 5.76136C58.6474 5.32386 58.5777 4.91619 58.4385 4.53835C58.2993 4.16051 58.0849 3.85511 57.7951 3.62216C57.5053 3.3892 57.136 3.27273 56.6871 3.27273C56.2383 3.27273 55.8689 3.3892 55.5792 3.62216C55.2894 3.85511 55.0749 4.16051 54.9357 4.53835C54.7965 4.91619 54.7269 5.32386 54.7269 5.76136C54.7269 6.19886 54.7965 6.60511 54.9357 6.98011C55.0749 7.35511 55.2894 7.65767 55.5792 7.88778C55.8689 8.1179 56.2383 8.23295 56.6871 8.23295ZM62.2539 5.0625V9H61.2482V2.45455H62.2198V3.47727H62.305C62.4584 3.14489 62.6914 2.87784 63.0039 2.67614C63.3164 2.47159 63.7198 2.36932 64.2141 2.36932C64.6573 2.36932 65.0451 2.46023 65.3774 2.64205C65.7098 2.82102 65.9684 3.09375 66.153 3.46023C66.3377 3.82386 66.43 4.28409 66.43 4.84091V9H65.4243V4.90909C65.4243 4.39489 65.2908 3.99432 65.0238 3.70739C64.7567 3.41761 64.3902 3.27273 63.9243 3.27273C63.6033 3.27273 63.3164 3.34233 63.0635 3.48153C62.8135 3.62074 62.6161 3.82386 62.4712 4.09091C62.3263 4.35795 62.2539 4.68182 62.2539 5.0625ZM74.2343 9.13636C73.6889 9.13636 73.2073 8.99858 72.7897 8.72301C72.3721 8.4446 72.0454 8.05256 71.8096 7.54688C71.5738 7.03835 71.4559 6.4375 71.4559 5.74432C71.4559 5.05682 71.5738 4.46023 71.8096 3.95455C72.0454 3.44886 72.3735 3.05824 72.794 2.78267C73.2144 2.5071 73.7002 2.36932 74.2514 2.36932C74.6775 2.36932 75.0141 2.44034 75.2613 2.58239C75.5113 2.72159 75.7016 2.88068 75.8323 3.05966C75.9658 3.2358 76.0695 3.38068 76.1434 3.49432H76.2286V0.272727H77.2343V9H76.2627V7.99432H76.1434C76.0695 8.11364 75.9644 8.2642 75.8281 8.44602C75.6917 8.625 75.4971 8.78551 75.2443 8.92756C74.9914 9.06676 74.6548 9.13636 74.2343 9.13636ZM74.3707 8.23295C74.7741 8.23295 75.115 8.12784 75.3934 7.91761C75.6718 7.70455 75.8835 7.41051 76.0283 7.03551C76.1732 6.65767 76.2457 6.22159 76.2457 5.72727C76.2457 5.23864 76.1747 4.81108 76.0326 4.4446C75.8906 4.07528 75.6803 3.78835 75.4019 3.58381C75.1235 3.37642 74.7798 3.27273 74.3707 3.27273C73.9445 3.27273 73.5894 3.3821 73.3053 3.60085C73.0241 3.81676 72.8124 4.1108 72.6704 4.48295C72.5312 4.85227 72.4616 5.26705 72.4616 5.72727C72.4616 6.19318 72.5326 6.61648 72.6747 6.99716C72.8195 7.375 73.0326 7.67614 73.3139 7.90057C73.598 8.12216 73.9502 8.23295 74.3707 8.23295ZM81.9349 9.13636C81.344 9.13636 80.8256 8.99574 80.3795 8.71449C79.9364 8.43324 79.5898 8.03977 79.3398 7.53409C79.0926 7.02841 78.969 6.4375 78.969 5.76136C78.969 5.07955 79.0926 4.48437 79.3398 3.97585C79.5898 3.46733 79.9364 3.07244 80.3795 2.79119C80.8256 2.50994 81.344 2.36932 81.9349 2.36932C82.5258 2.36932 83.0429 2.50994 83.4861 2.79119C83.9321 3.07244 84.2787 3.46733 84.5258 3.97585C84.7758 4.48437 84.9008 5.07955 84.9008 5.76136C84.9008 6.4375 84.7758 7.02841 84.5258 7.53409C84.2787 8.03977 83.9321 8.43324 83.4861 8.71449C83.0429 8.99574 82.5258 9.13636 81.9349 9.13636ZM81.9349 8.23295C82.3838 8.23295 82.7531 8.1179 83.0429 7.88778C83.3327 7.65767 83.5472 7.35511 83.6864 6.98011C83.8256 6.60511 83.8952 6.19886 83.8952 5.76136C83.8952 5.32386 83.8256 4.91619 83.6864 4.53835C83.5472 4.16051 83.3327 3.85511 83.0429 3.62216C82.7531 3.3892 82.3838 3.27273 81.9349 3.27273C81.4861 3.27273 81.1168 3.3892 80.827 3.62216C80.5372 3.85511 80.3227 4.16051 80.1835 4.53835C80.0443 4.91619 79.9747 5.32386 79.9747 5.76136C79.9747 6.19886 80.0443 6.60511 80.1835 6.98011C80.3227 7.35511 80.5372 7.65767 80.827 7.88778C81.1168 8.1179 81.4861 8.23295 81.9349 8.23295ZM87.5017 5.0625V9H86.496V2.45455H87.4676V3.47727H87.5528C87.7062 3.14489 87.9392 2.87784 88.2517 2.67614C88.5642 2.47159 88.9676 2.36932 89.4619 2.36932C89.9051 2.36932 90.2929 2.46023 90.6253 2.64205C90.9576 2.82102 91.2162 3.09375 91.4008 3.46023C91.5855 3.82386 91.6778 4.28409 91.6778 4.84091V9H90.6721V4.90909C90.6721 4.39489 90.5386 3.99432 90.2716 3.70739C90.0045 3.41761 89.638 3.27273 89.1721 3.27273C88.8511 3.27273 88.5642 3.34233 88.3113 3.48153C88.0613 3.62074 87.8639 3.82386 87.719 4.09091C87.5741 4.35795 87.5017 4.68182 87.5017 5.0625ZM96.3198 9.13636C95.6892 9.13636 95.1451 8.99716 94.6877 8.71875C94.2332 8.4375 93.8823 8.04545 93.6352 7.54261C93.3909 7.03693 93.2687 6.44886 93.2687 5.77841C93.2687 5.10795 93.3909 4.51705 93.6352 4.00568C93.8823 3.49148 94.2261 3.09091 94.6664 2.80398C95.1096 2.5142 95.6267 2.36932 96.2176 2.36932C96.5585 2.36932 96.8951 2.42614 97.2275 2.53977C97.5599 2.65341 97.8625 2.83807 98.1352 3.09375C98.4079 3.34659 98.6252 3.68182 98.7872 4.09943C98.9491 4.51705 99.0301 5.03125 99.0301 5.64205V6.06818H93.9846V5.19886H98.0073C98.0073 4.82955 97.9335 4.5 97.7858 4.21023C97.6409 3.92045 97.4335 3.69176 97.1636 3.52415C96.8966 3.35653 96.5812 3.27273 96.2176 3.27273C95.817 3.27273 95.4704 3.37216 95.1778 3.57102C94.888 3.76705 94.665 4.02273 94.5088 4.33807C94.3525 4.65341 94.2744 4.99148 94.2744 5.35227V5.93182C94.2744 6.42614 94.3596 6.84517 94.5301 7.18892C94.7034 7.52983 94.9434 7.78977 95.2502 7.96875C95.5571 8.14489 95.9136 8.23295 96.3198 8.23295C96.5841 8.23295 96.8227 8.19602 97.0358 8.12216C97.2517 8.04545 97.4377 7.93182 97.594 7.78125C97.7502 7.62784 97.871 7.4375 97.9562 7.21023L98.9278 7.48295C98.8255 7.8125 98.6537 8.10227 98.4122 8.35227C98.1707 8.59943 97.8724 8.79261 97.5173 8.93182C97.1622 9.06818 96.763 9.13636 96.3198 9.13636Z" fill="#4F4F4F"/>
<path d="M567.259 2.45455C567.208 2.02273 567 1.6875 566.637 1.44886C566.273 1.21023 565.827 1.09091 565.299 1.09091C564.912 1.09091 564.574 1.15341 564.284 1.27841C563.998 1.40341 563.773 1.57528 563.611 1.79403C563.452 2.01278 563.373 2.26136 563.373 2.53977C563.373 2.77273 563.428 2.97301 563.539 3.14062C563.652 3.3054 563.797 3.44318 563.973 3.55398C564.15 3.66193 564.334 3.75142 564.527 3.82244C564.721 3.89062 564.898 3.94602 565.06 3.98864L565.946 4.22727C566.174 4.28693 566.427 4.36932 566.705 4.47443C566.986 4.57955 567.255 4.72301 567.51 4.90483C567.769 5.08381 567.982 5.31392 568.15 5.59517C568.317 5.87642 568.401 6.22159 568.401 6.63068C568.401 7.10227 568.277 7.52841 568.03 7.90909C567.786 8.28977 567.428 8.59233 566.956 8.81676C566.488 9.04119 565.918 9.15341 565.248 9.15341C564.623 9.15341 564.081 9.05256 563.624 8.85085C563.169 8.64915 562.811 8.3679 562.55 8.0071C562.292 7.64631 562.145 7.22727 562.111 6.75H563.202C563.231 7.07955 563.341 7.35227 563.534 7.56818C563.731 7.78125 563.978 7.94034 564.276 8.04545C564.577 8.14773 564.901 8.19886 565.248 8.19886C565.651 8.19886 566.013 8.13352 566.334 8.00284C566.655 7.86932 566.909 7.68466 567.097 7.44886C567.284 7.21023 567.378 6.93182 567.378 6.61364C567.378 6.32386 567.297 6.08807 567.135 5.90625C566.973 5.72443 566.76 5.5767 566.496 5.46307C566.232 5.34943 565.946 5.25 565.64 5.16477L564.566 4.85795C563.884 4.66193 563.344 4.3821 562.946 4.01847C562.549 3.65483 562.35 3.17898 562.35 2.59091C562.35 2.10227 562.482 1.67614 562.746 1.3125C563.013 0.946023 563.371 0.661932 563.82 0.460227C564.272 0.255682 564.776 0.153409 565.333 0.153409C565.895 0.153409 566.395 0.254261 566.833 0.455966C567.27 0.654829 567.617 0.927556 567.873 1.27415C568.131 1.62074 568.267 2.0142 568.282 2.45455H567.259ZM572.806 9.13636C572.176 9.13636 571.632 8.99716 571.174 8.71875C570.72 8.4375 570.369 8.04545 570.122 7.54261C569.878 7.03693 569.755 6.44886 569.755 5.77841C569.755 5.10795 569.878 4.51705 570.122 4.00568C570.369 3.49148 570.713 3.09091 571.153 2.80398C571.596 2.5142 572.113 2.36932 572.704 2.36932C573.045 2.36932 573.382 2.42614 573.714 2.53977C574.047 2.65341 574.349 2.83807 574.622 3.09375C574.895 3.34659 575.112 3.68182 575.274 4.09943C575.436 4.51705 575.517 5.03125 575.517 5.64205V6.06818H570.471V5.19886H574.494C574.494 4.82955 574.42 4.5 574.272 4.21023C574.128 3.92045 573.92 3.69176 573.65 3.52415C573.383 3.35653 573.068 3.27273 572.704 3.27273C572.304 3.27273 571.957 3.37216 571.664 3.57102C571.375 3.76705 571.152 4.02273 570.995 4.33807C570.839 4.65341 570.761 4.99148 570.761 5.35227V5.93182C570.761 6.42614 570.846 6.84517 571.017 7.18892C571.19 7.52983 571.43 7.78977 571.737 7.96875C572.044 8.14489 572.4 8.23295 572.806 8.23295C573.071 8.23295 573.309 8.19602 573.522 8.12216C573.738 8.04545 573.924 7.93182 574.081 7.78125C574.237 7.62784 574.358 7.4375 574.443 7.21023L575.414 7.48295C575.312 7.8125 575.14 8.10227 574.899 8.35227C574.657 8.59943 574.359 8.79261 574.004 8.93182C573.649 9.06818 573.25 9.13636 572.806 9.13636ZM579.953 2.45455V3.30682H576.561V2.45455H579.953ZM577.55 0.886364H578.555V7.125C578.555 7.40909 578.597 7.62216 578.679 7.7642C578.764 7.90341 578.872 7.99716 579.003 8.04545C579.136 8.09091 579.277 8.11364 579.425 8.11364C579.536 8.11364 579.626 8.10795 579.697 8.09659C579.768 8.08239 579.825 8.07102 579.868 8.0625L580.072 8.96591C580.004 8.99148 579.909 9.01705 579.787 9.04261C579.665 9.07102 579.51 9.08523 579.322 9.08523C579.038 9.08523 578.76 9.02415 578.487 8.90199C578.217 8.77983 577.993 8.59375 577.814 8.34375C577.638 8.09375 577.55 7.77841 577.55 7.39773V0.886364ZM584.373 2.45455V3.30682H580.98V2.45455H584.373ZM581.969 0.886364H582.975V7.125C582.975 7.40909 583.016 7.62216 583.098 7.7642C583.184 7.90341 583.292 7.99716 583.422 8.04545C583.556 8.09091 583.696 8.11364 583.844 8.11364C583.955 8.11364 584.046 8.10795 584.117 8.09659C584.188 8.08239 584.245 8.07102 584.287 8.0625L584.492 8.96591C584.424 8.99148 584.328 9.01705 584.206 9.04261C584.084 9.07102 583.929 9.08523 583.742 9.08523C583.458 9.08523 583.179 9.02415 582.907 8.90199C582.637 8.77983 582.412 8.59375 582.233 8.34375C582.057 8.09375 581.969 7.77841 581.969 7.39773V0.886364ZM587.092 0.272727V9H586.086V0.272727H587.092ZM591.738 9.13636C591.107 9.13636 590.563 8.99716 590.106 8.71875C589.651 8.4375 589.3 8.04545 589.053 7.54261C588.809 7.03693 588.687 6.44886 588.687 5.77841C588.687 5.10795 588.809 4.51705 589.053 4.00568C589.3 3.49148 589.644 3.09091 590.084 2.80398C590.528 2.5142 591.045 2.36932 591.636 2.36932C591.977 2.36932 592.313 2.42614 592.646 2.53977C592.978 2.65341 593.281 2.83807 593.553 3.09375C593.826 3.34659 594.043 3.68182 594.205 4.09943C594.367 4.51705 594.448 5.03125 594.448 5.64205V6.06818H589.403V5.19886H593.425C593.425 4.82955 593.352 4.5 593.204 4.21023C593.059 3.92045 592.852 3.69176 592.582 3.52415C592.315 3.35653 591.999 3.27273 591.636 3.27273C591.235 3.27273 590.888 3.37216 590.596 3.57102C590.306 3.76705 590.083 4.02273 589.927 4.33807C589.771 4.65341 589.692 4.99148 589.692 5.35227V5.93182C589.692 6.42614 589.778 6.84517 589.948 7.18892C590.121 7.52983 590.361 7.78977 590.668 7.96875C590.975 8.14489 591.332 8.23295 591.738 8.23295C592.002 8.23295 592.241 8.19602 592.454 8.12216C592.67 8.04545 592.856 7.93182 593.012 7.78125C593.168 7.62784 593.289 7.4375 593.374 7.21023L594.346 7.48295C594.244 7.8125 594.072 8.10227 593.83 8.35227C593.589 8.59943 593.29 8.79261 592.935 8.93182C592.58 9.06818 592.181 9.13636 591.738 9.13636ZM598.51 9.13636C597.964 9.13636 597.483 8.99858 597.065 8.72301C596.647 8.4446 596.321 8.05256 596.085 7.54688C595.849 7.03835 595.731 6.4375 595.731 5.74432C595.731 5.05682 595.849 4.46023 596.085 3.95455C596.321 3.44886 596.649 3.05824 597.069 2.78267C597.49 2.5071 597.975 2.36932 598.527 2.36932C598.953 2.36932 599.289 2.44034 599.537 2.58239C599.787 2.72159 599.977 2.88068 600.108 3.05966C600.241 3.2358 600.345 3.38068 600.419 3.49432H600.504V0.272727H601.51V9H600.538V7.99432H600.419C600.345 8.11364 600.24 8.2642 600.103 8.44602C599.967 8.625 599.772 8.78551 599.519 8.92756C599.267 9.06676 598.93 9.13636 598.51 9.13636ZM598.646 8.23295C599.049 8.23295 599.39 8.12784 599.669 7.91761C599.947 7.70455 600.159 7.41051 600.304 7.03551C600.448 6.65767 600.521 6.22159 600.521 5.72727C600.521 5.23864 600.45 4.81108 600.308 4.4446C600.166 4.07528 599.956 3.78835 599.677 3.58381C599.399 3.37642 599.055 3.27273 598.646 3.27273C598.22 3.27273 597.865 3.3821 597.581 3.60085C597.299 3.81676 597.088 4.1108 596.946 4.48295C596.806 4.85227 596.737 5.26705 596.737 5.72727C596.737 6.19318 596.808 6.61648 596.95 6.99716C597.095 7.375 597.308 7.67614 597.589 7.90057C597.873 8.12216 598.225 8.23295 598.646 8.23295Z" fill="#4F4F4F"/>
<circle cx="49.5" cy="26.5" r="4.5" fill="white" stroke="#F2994A" stroke-width="2"/>
<path d="M219.526 40.5085V39.7273H224.98V40.5085H222.694V47H221.813V40.5085H219.526ZM227.615 46.5028V41.8153H228.41V46.5028H227.615ZM225.669 44.5568V43.7614H230.356V44.5568H225.669ZM234.618 39.7273V47H233.738V40.6506H233.695L231.919 41.8295V40.9347L233.738 39.7273H234.618Z" fill="#828282"/>
<circle cx="227.5" cy="25.5" r="4.5" fill="white" stroke="#959CB6" stroke-width="2"/>
<path d="M376.095 47V39.7273H378.637C379.144 39.7273 379.562 39.8149 379.891 39.9901C380.22 40.1629 380.465 40.3961 380.626 40.6896C380.787 40.9808 380.867 41.304 380.867 41.6591C380.867 41.9716 380.812 42.2296 380.7 42.4332C380.591 42.6368 380.447 42.7978 380.267 42.9162C380.09 43.0346 379.897 43.1222 379.688 43.179V43.25C379.911 43.2642 380.135 43.3423 380.359 43.4844C380.584 43.6264 380.773 43.83 380.924 44.0952C381.076 44.3603 381.151 44.6847 381.151 45.0682C381.151 45.4328 381.069 45.7607 380.903 46.0518C380.737 46.343 380.475 46.5739 380.118 46.7443C379.761 46.9148 379.295 47 378.722 47H376.095ZM376.975 46.2188H378.722C379.298 46.2188 379.706 46.1075 379.948 45.8849C380.191 45.66 380.313 45.3878 380.313 45.0682C380.313 44.822 380.251 44.5947 380.125 44.3864C380 44.1757 379.821 44.0076 379.589 43.8821C379.357 43.7543 379.082 43.6903 378.765 43.6903H376.975V46.2188ZM376.975 42.9233H378.609C378.874 42.9233 379.113 42.8712 379.326 42.767C379.542 42.6629 379.712 42.5161 379.837 42.3267C379.965 42.1373 380.029 41.9148 380.029 41.6591C380.029 41.3395 379.918 41.0684 379.695 40.8459C379.473 40.621 379.12 40.5085 378.637 40.5085H376.975V42.9233ZM384.09 47.1278C383.744 47.1278 383.431 47.0627 383.149 46.9325C382.867 46.8 382.643 46.6094 382.478 46.3608C382.312 46.1098 382.229 45.8068 382.229 45.4517C382.229 45.1392 382.291 44.8859 382.414 44.6918C382.537 44.4953 382.701 44.3414 382.907 44.2301C383.113 44.1188 383.341 44.036 383.589 43.9815C383.84 43.9247 384.092 43.8797 384.346 43.8466C384.677 43.804 384.946 43.772 385.152 43.7507C385.36 43.727 385.512 43.688 385.606 43.6335C385.703 43.5791 385.752 43.4844 385.752 43.3494V43.321C385.752 42.9706 385.656 42.6984 385.464 42.5043C385.275 42.3101 384.987 42.2131 384.601 42.2131C384.201 42.2131 383.888 42.3007 383.66 42.4759C383.433 42.651 383.273 42.8381 383.181 43.0369L382.385 42.7528C382.527 42.4214 382.717 42.1634 382.954 41.9787C383.193 41.7917 383.453 41.6615 383.735 41.5881C384.019 41.5123 384.298 41.4744 384.573 41.4744C384.748 41.4744 384.949 41.4957 385.177 41.5384C385.406 41.5786 385.628 41.6626 385.841 41.7905C386.056 41.9183 386.235 42.1113 386.377 42.3693C386.519 42.6274 386.59 42.973 386.59 43.4062V47H385.752V46.2614H385.709C385.652 46.3797 385.558 46.5064 385.425 46.6413C385.293 46.7763 385.116 46.8911 384.896 46.9858C384.676 47.0805 384.407 47.1278 384.09 47.1278ZM384.218 46.375C384.549 46.375 384.829 46.3099 385.056 46.1797C385.285 46.0495 385.458 45.8814 385.574 45.6754C385.693 45.4695 385.752 45.2528 385.752 45.0256V44.2585C385.716 44.3011 385.638 44.3402 385.517 44.3757C385.399 44.4089 385.262 44.4384 385.106 44.4645C384.952 44.4882 384.801 44.5095 384.655 44.5284C384.51 44.545 384.393 44.5592 384.303 44.571C384.085 44.5994 383.882 44.6456 383.692 44.7095C383.505 44.7711 383.354 44.8646 383.238 44.9901C383.124 45.1132 383.067 45.2812 383.067 45.4943C383.067 45.7855 383.175 46.0057 383.39 46.1548C383.608 46.3016 383.884 46.375 384.218 46.375ZM388.958 43.7188V47H388.12V41.5455H388.929V42.3977H389C389.128 42.1207 389.322 41.8982 389.583 41.7301C389.843 41.5597 390.179 41.4744 390.591 41.4744C390.96 41.4744 391.284 41.5502 391.561 41.7017C391.838 41.8509 392.053 42.0781 392.207 42.3835C392.361 42.6866 392.438 43.0701 392.438 43.5341V47H391.6V43.5909C391.6 43.1624 391.488 42.8286 391.266 42.5895C391.043 42.348 390.738 42.2273 390.35 42.2273C390.082 42.2273 389.843 42.2853 389.632 42.4013C389.424 42.5173 389.259 42.6866 389.139 42.9091C389.018 43.1316 388.958 43.4015 388.958 43.7188ZM394.75 45.0114L394.736 43.9744H394.907L397.293 41.5455H398.33L395.787 44.1165H395.716L394.75 45.0114ZM393.969 47V39.7273H394.807V47H393.969ZM397.435 47L395.304 44.3011L395.901 43.7188L398.5 47H397.435ZM402.335 47V39.7273H403.215V42.9659H407.093V39.7273H407.974V47H407.093V43.7472H403.215V47H402.335ZM411.839 47.1136C411.347 47.1136 410.915 46.9964 410.543 46.7621C410.174 46.5277 409.885 46.1998 409.677 45.7784C409.471 45.357 409.368 44.8646 409.368 44.3011C409.368 43.733 409.471 43.237 409.677 42.8132C409.885 42.3894 410.174 42.0604 410.543 41.826C410.915 41.5916 411.347 41.4744 411.839 41.4744C412.332 41.4744 412.763 41.5916 413.132 41.826C413.504 42.0604 413.793 42.3894 413.998 42.8132C414.207 43.237 414.311 43.733 414.311 44.3011C414.311 44.8646 414.207 45.357 413.998 45.7784C413.793 46.1998 413.504 46.5277 413.132 46.7621C412.763 46.9964 412.332 47.1136 411.839 47.1136ZM411.839 46.3608C412.213 46.3608 412.521 46.2649 412.763 46.0732C413.004 45.8814 413.183 45.6293 413.299 45.3168C413.415 45.0043 413.473 44.6657 413.473 44.3011C413.473 43.9366 413.415 43.5968 413.299 43.282C413.183 42.9671 413.004 42.7126 412.763 42.5185C412.521 42.3243 412.213 42.2273 411.839 42.2273C411.465 42.2273 411.158 42.3243 410.916 42.5185C410.675 42.7126 410.496 42.9671 410.38 43.282C410.264 43.5968 410.206 43.9366 410.206 44.3011C410.206 44.6657 410.264 45.0043 410.38 45.3168C410.496 45.6293 410.675 45.8814 410.916 46.0732C411.158 46.2649 411.465 46.3608 411.839 46.3608ZM416.428 39.7273V47H415.59V39.7273H416.428ZM417.963 47V41.5455H418.801V47H417.963ZM418.389 40.6364C418.226 40.6364 418.085 40.5807 417.967 40.4695C417.851 40.3582 417.793 40.2244 417.793 40.0682C417.793 39.9119 417.851 39.7782 417.967 39.6669C418.085 39.5556 418.226 39.5 418.389 39.5C418.553 39.5 418.693 39.5556 418.809 39.6669C418.927 39.7782 418.986 39.9119 418.986 40.0682C418.986 40.2244 418.927 40.3582 418.809 40.4695C418.693 40.5807 418.553 40.6364 418.389 40.6364ZM422.396 47.1136C421.941 47.1136 421.54 46.9988 421.192 46.7692C420.844 46.5372 420.572 46.2105 420.375 45.7891C420.179 45.3653 420.081 44.8646 420.081 44.2869C420.081 43.714 420.179 43.2169 420.375 42.7955C420.572 42.3741 420.845 42.0485 421.196 41.8189C421.546 41.5893 421.951 41.4744 422.41 41.4744C422.765 41.4744 423.046 41.5336 423.252 41.652C423.46 41.768 423.619 41.9006 423.728 42.0497C423.839 42.1965 423.925 42.3172 423.987 42.4119H424.058V39.7273H424.896V47H424.086V46.1619H423.987C423.925 46.2614 423.838 46.3868 423.724 46.5384C423.611 46.6875 423.448 46.8213 423.238 46.9396C423.027 47.0556 422.746 47.1136 422.396 47.1136ZM422.51 46.3608C422.846 46.3608 423.13 46.2732 423.362 46.098C423.594 45.9205 423.77 45.6754 423.891 45.3629C424.012 45.0481 424.072 44.6847 424.072 44.2727C424.072 43.8655 424.013 43.5092 423.895 43.2038C423.776 42.8961 423.601 42.657 423.369 42.4865C423.137 42.3137 422.851 42.2273 422.51 42.2273C422.155 42.2273 421.859 42.3184 421.622 42.5007C421.388 42.6806 421.211 42.9257 421.093 43.2358C420.977 43.5436 420.919 43.8892 420.919 44.2727C420.919 44.661 420.978 45.0137 421.096 45.331C421.217 45.6458 421.395 45.8968 421.629 46.0838C421.866 46.2685 422.159 46.3608 422.51 46.3608ZM428.152 47.1278C427.807 47.1278 427.493 47.0627 427.211 46.9325C426.93 46.8 426.706 46.6094 426.54 46.3608C426.374 46.1098 426.292 45.8068 426.292 45.4517C426.292 45.1392 426.353 44.8859 426.476 44.6918C426.599 44.4953 426.764 44.3414 426.97 44.2301C427.176 44.1188 427.403 44.036 427.652 43.9815C427.903 43.9247 428.155 43.8797 428.408 43.8466C428.74 43.804 429.008 43.772 429.214 43.7507C429.423 43.727 429.574 43.688 429.669 43.6335C429.766 43.5791 429.814 43.4844 429.814 43.3494V43.321C429.814 42.9706 429.718 42.6984 429.527 42.5043C429.337 42.3101 429.05 42.2131 428.664 42.2131C428.264 42.2131 427.95 42.3007 427.723 42.4759C427.495 42.651 427.336 42.8381 427.243 43.0369L426.448 42.7528C426.59 42.4214 426.779 42.1634 427.016 41.9787C427.255 41.7917 427.516 41.6615 427.797 41.5881C428.081 41.5123 428.361 41.4744 428.635 41.4744C428.811 41.4744 429.012 41.4957 429.239 41.5384C429.469 41.5786 429.69 41.6626 429.903 41.7905C430.119 41.9183 430.297 42.1113 430.439 42.3693C430.581 42.6274 430.652 42.973 430.652 43.4062V47H429.814V46.2614H429.772C429.715 46.3797 429.62 46.5064 429.488 46.6413C429.355 46.7763 429.179 46.8911 428.959 46.9858C428.738 47.0805 428.47 47.1278 428.152 47.1278ZM428.28 46.375C428.612 46.375 428.891 46.3099 429.118 46.1797C429.348 46.0495 429.521 45.8814 429.637 45.6754C429.755 45.4695 429.814 45.2528 429.814 45.0256V44.2585C429.779 44.3011 429.701 44.3402 429.58 44.3757C429.462 44.4089 429.324 44.4384 429.168 44.4645C429.014 44.4882 428.864 44.5095 428.717 44.5284C428.573 44.545 428.455 44.5592 428.366 44.571C428.148 44.5994 427.944 44.6456 427.755 44.7095C427.568 44.7711 427.416 44.8646 427.3 44.9901C427.187 45.1132 427.13 45.2812 427.13 45.4943C427.13 45.7855 427.237 46.0057 427.453 46.1548C427.671 46.3016 427.946 46.375 428.28 46.375ZM432.527 49.0455C432.384 49.0455 432.258 49.0336 432.147 49.0099C432.035 48.9886 431.958 48.9673 431.916 48.946L432.129 48.2074C432.332 48.2595 432.512 48.2784 432.669 48.2642C432.825 48.25 432.963 48.1802 433.084 48.0547C433.207 47.9316 433.32 47.7315 433.421 47.4545L433.578 47.0284L431.561 41.5455H432.47L433.975 45.892H434.032L435.538 41.5455H436.447L434.132 47.7955C434.027 48.0772 433.898 48.3104 433.745 48.495C433.591 48.6821 433.412 48.8205 433.208 48.9105C433.007 49.0005 432.78 49.0455 432.527 49.0455Z" fill="#828282"/>
<circle cx="405.5" cy="25.5" r="4.5" fill="white" stroke="#D3485D" stroke-width="2"/>
<circle cx="581.5" cy="25.5" r="4.5" fill="white" stroke="#17A180" stroke-width="2"/>
</svg>
